M48
; DRILL file {KiCad (5.1.4)-1} date 03/10/2019 10:29:37
; FORMAT={-:-/ absolute / metric / decimal}
; #@! TF.CreationDate,2019-10-03T10:29:37+02:00
; #@! TF.GenerationSoftware,Kicad,Pcbnew,(5.1.4)-1
; #@! TF.FileFunction,Plated,1,2,PTH
FMAT,2
METRIC
T1C0.300
T2C0.600
T3C0.800
T4C0.850
T5C1.000
%
G90
G05
T1
X68.9Y-124.9
X69.0Y-125.726
X69.0Y-126.5
X69.0Y-127.3
X70.89Y-115.52
X72.1Y-124.0
X72.4Y-124.7
X72.87Y-74.06
X72.87Y-75.96
X73.28Y-70.22
X74.658Y-122.274
X75.0Y-75.0
X75.485Y-122.261
X75.74Y-117.54
X75.75Y-118.99
X76.31Y-133.78
X76.6Y-123.6
X76.6Y-124.4
X76.6Y-125.2
X76.6Y-126.0
X76.7Y-130.9
X77.2Y-74.05
X77.2Y-75.94
X77.6Y-116.4
X77.6Y-117.69
X77.94Y-118.81
X80.91Y-124.25
X82.0Y-118.0
X82.0Y-118.8
X82.0Y-119.6
X82.0Y-120.4
X82.0Y-121.2
X82.0Y-122.0
X82.0Y-127.527
X82.0Y-128.254
X82.0Y-129.0
X82.0Y-122.8
X82.0Y-129.84
X82.01Y-138.58
X82.02Y-130.68
X87.5Y-58.9
X89.01Y-138.63
X89.69Y-136.61
X96.0Y-59.0
X97.1Y-57.8
X99.26Y-135.17
X100.0Y-57.0
X119.9Y-73.1
X119.9Y-74.375
X119.9Y-75.65
X122.6Y-76.9
X123.16Y-69.54
X130.0Y-74.4
X130.0Y-75.6
X130.1Y-76.9
X137.9Y-59.25
X145.415Y-59.436
X146.558Y-58.166
X149.987Y-57.15
X153.46Y-140.99
X153.79Y-143.85
X158.26Y-144.01
X159.21Y-140.21
X166.1Y-72.12
X168.0Y-62.01
X172.04Y-75.4
X176.0Y-69.0
X176.98Y-69.0
X177.605Y-74.34
X177.92Y-76.24
X178.0Y-69.0
X178.151Y-74.82
X181.99Y-62.01
X182.97Y-142.57
X184.37Y-131.52
X185.07Y-131.52
X185.77Y-131.52
X186.47Y-131.52
X186.748Y-57.892
X187.17Y-131.52
X187.87Y-131.52
X188.57Y-131.52
X189.27Y-131.52
X194.2Y-58.08
X195.14Y-56.81
X195.73Y-143.74
X200.0Y-56.02
X206.8Y-129.29
X207.61Y-129.29
X208.42Y-129.29
X209.23Y-129.29
X210.04Y-129.29
X210.85Y-129.29
X211.333Y-123.843
X211.66Y-129.29
X212.14Y-123.84
X212.47Y-129.29
X212.95Y-123.84
X213.28Y-129.29
X213.76Y-123.84
X214.57Y-123.84
X214.602Y-119.472
X214.78Y-132.79
X216.0Y-126.06
X216.0Y-126.87
X216.0Y-127.68
X216.0Y-129.3
X216.0Y-130.11
X216.0Y-130.92
X217.5Y-126.3
X217.93Y-71.04
X217.93Y-74.99
X217.93Y-75.8
X217.93Y-76.62
X218.198Y-61.202
X218.81Y-116.79
X219.61Y-116.79
X220.409Y-116.79
X220.635Y-122.035
X221.136Y-116.79
X221.76Y-120.46
X221.82Y-81.96
X221.837Y-123.373
X221.863Y-116.79
X221.88Y-132.18
X222.65Y-123.37
X222.95Y-139.32
X223.46Y-123.37
X223.64Y-128.24
X223.83Y-106.5
X224.27Y-123.37
X224.45Y-129.05
X225.26Y-128.24
X226.07Y-129.05
X226.62Y-68.11
X226.88Y-128.24
X227.52Y-126.02
X227.69Y-129.05
X227.818Y-128.056
X228.07Y-124.87
X228.17Y-68.13
X228.22Y-82.03
X228.25Y-72.0
X228.25Y-72.75
X228.256Y-71.175
X228.42Y-124.233
X228.8Y-123.57
X229.48Y-75.8
X229.78Y-109.4
X230.423Y-139.95
X230.864Y-138.557
X231.81Y-61.25
X232.23Y-127.39
X232.323Y-76.713
X232.33Y-74.04
X232.46Y-122.08
X232.636Y-60.46
X232.67Y-149.09
X232.837Y-77.227
X232.89Y-126.73
X233.12Y-55.25
X233.363Y-60.46
X233.55Y-126.07
X234.203Y-125.413
X235.25Y-130.7
X235.4Y-75.24
X236.6Y-121.55
X237.41Y-121.55
X237.52Y-58.22
X238.22Y-121.55
X243.93Y-58.21
X245.15Y-56.99
X249.01Y-55.91
T3
X172.56Y-64.01
X177.44Y-64.01
X222.56Y-63.03
X227.44Y-63.03
T4
X231.93Y-54.152
X236.93Y-54.152
X155.37Y-145.847
X160.37Y-145.847
T5
X68.65Y-105.95
X71.19Y-105.95
X73.73Y-105.95
X76.27Y-105.95
X78.81Y-105.95
X81.35Y-105.95
X142.875Y-57.785
X142.875Y-60.325
X203.41Y-107.22
X203.41Y-109.76
X203.41Y-112.3
X203.41Y-114.84
X203.41Y-117.38
X203.41Y-119.92
X203.41Y-122.46
X203.41Y-125.0
X203.41Y-127.54
X203.41Y-130.08
X203.41Y-132.62
X203.41Y-135.16
X203.41Y-137.7
X203.41Y-140.24
X203.41Y-142.78
X203.41Y-145.32
X191.5Y-56.49
X191.5Y-59.03
X86.5Y-137.0
X86.5Y-139.54
X241.5Y-56.5
X241.5Y-59.04
X209.04Y-55.5
X209.04Y-58.04
X209.04Y-60.58
X211.58Y-55.5
X211.58Y-58.04
X211.58Y-60.58
X205.96Y-104.69
X208.5Y-104.69
X211.04Y-104.69
X213.58Y-104.69
X216.12Y-104.69
X218.66Y-104.69
X221.2Y-104.69
X223.74Y-104.69
X226.28Y-104.69
X228.82Y-104.69
X231.36Y-104.69
X233.9Y-104.69
X236.44Y-104.69
X238.98Y-104.69
X241.52Y-104.69
X244.06Y-104.69
X118.63Y-85.0
X121.17Y-85.0
X123.71Y-85.0
X126.25Y-85.0
X128.79Y-85.0
X131.33Y-85.0
X246.6Y-107.22
X246.6Y-109.76
X246.6Y-112.3
X246.6Y-114.84
X246.6Y-117.38
X246.6Y-119.92
X246.6Y-122.46
X246.6Y-125.0
X246.6Y-127.54
X246.6Y-130.08
X246.6Y-132.62
X246.6Y-135.16
X246.6Y-137.7
X246.6Y-140.24
X246.6Y-142.78
X246.6Y-145.32
X209.76Y-67.38
X209.76Y-69.92
X209.76Y-72.46
X209.76Y-75.0
X209.76Y-77.54
X209.76Y-80.08
X209.76Y-82.62
X209.76Y-85.16
X228.62Y-115.46
X231.16Y-115.46
X233.7Y-115.46
X236.24Y-115.46
X238.78Y-115.46
X71.2Y-85.0
X73.74Y-85.0
X76.28Y-85.0
X78.82Y-85.0
X55.95Y-105.96
X55.95Y-108.5
X55.95Y-111.04
X55.95Y-113.58
X55.95Y-116.12
X55.95Y-118.66
X55.95Y-121.2
X55.95Y-123.74
X55.95Y-126.28
X55.95Y-128.82
X55.95Y-131.36
X55.95Y-133.9
X55.95Y-136.44
X55.95Y-138.98
X55.95Y-141.52
X55.95Y-144.06
X160.0Y-81.63
X160.0Y-84.17
X160.0Y-86.71
X160.0Y-89.25
X212.3Y-90.25
X214.84Y-90.25
X217.38Y-90.25
X219.92Y-90.25
X222.46Y-90.25
X225.0Y-90.25
X227.54Y-90.25
X230.08Y-90.25
X232.62Y-90.25
X235.16Y-90.25
X237.7Y-90.25
X107.9Y-56.5
X107.9Y-59.04
X107.9Y-61.58
X110.44Y-56.5
X110.44Y-59.04
X110.44Y-61.58
X160.0Y-63.85
X160.0Y-66.39
X160.0Y-68.93
X160.0Y-71.47
X160.0Y-74.01
X160.0Y-76.55
X240.24Y-67.38
X240.24Y-69.92
X240.24Y-72.46
X240.24Y-75.0
X240.24Y-77.54
X240.24Y-80.08
X240.24Y-82.62
X240.24Y-85.16
X233.43Y-109.5
X235.97Y-109.5
X238.51Y-109.5
X159.03Y-55.5
X159.03Y-58.04
X159.03Y-60.58
X161.57Y-55.5
X161.57Y-58.04
X161.57Y-60.58
X177.58Y-146.07
X180.12Y-146.07
X227.44Y-138.0
X227.44Y-140.54
X57.9Y-56.5
X57.9Y-59.04
X57.9Y-61.58
X60.44Y-56.5
X60.44Y-59.04
X60.44Y-61.58
X94.05Y-105.96
X94.05Y-108.5
X94.05Y-111.04
X94.05Y-113.58
X94.05Y-116.12
X94.05Y-118.66
X94.05Y-121.2
X94.05Y-123.74
X94.05Y-126.28
X94.05Y-128.82
X94.05Y-131.36
X94.05Y-133.9
X94.05Y-136.44
X94.05Y-138.98
X94.05Y-141.52
X94.05Y-144.06
X92.75Y-57.68
X92.75Y-60.22
X167.38Y-90.0
X169.92Y-90.0
X172.46Y-90.0
X175.0Y-90.0
X177.54Y-90.0
X180.08Y-90.0
X182.62Y-90.0
X62.23Y-134.62
X64.77Y-134.62
X67.31Y-134.62
X69.85Y-134.62
X72.39Y-134.62
X64.77Y-139.7
X67.31Y-139.7
X69.85Y-139.7
X208.5Y-147.09
X211.04Y-147.09
X213.58Y-147.09
X190.0Y-66.11
X190.0Y-68.65
X190.0Y-71.19
X190.0Y-73.73
X190.0Y-76.27
X190.0Y-78.81
X190.0Y-81.35
X190.0Y-83.89
X225.18Y-54.18
X227.72Y-54.18
T2
G00X230.93Y-51.802
M15
G01X230.93Y-51.102
M16
G05
G00X237.93Y-51.102
M15
G01X237.93Y-51.802
M16
G05
G00X154.37Y-148.897
M15
G01X154.37Y-148.197
M16
G05
G00X161.37Y-148.197
M15
G01X161.37Y-148.897
M16
G05
T5
G00X166.82Y-139.83
M15
G01X168.82Y-139.83
M16
G05
G00X166.82Y-145.83
M15
G01X168.82Y-145.83
M16
G05
G00X172.52Y-143.83
M15
G01X172.52Y-141.83
M16
G05
T0
M30
