G04 #@! TF.GenerationSoftware,KiCad,Pcbnew,(5.1.4)-1*
G04 #@! TF.CreationDate,2019-10-03T10:29:34+02:00*
G04 #@! TF.ProjectId,regalodilara,72656761-6c6f-4646-996c-6172612e6b69,rev?*
G04 #@! TF.SameCoordinates,Original*
G04 #@! TF.FileFunction,Legend,Bot*
G04 #@! TF.FilePolarity,Positive*
%FSLAX46Y46*%
G04 Gerber Fmt 4.6, Leading zero omitted, Abs format (unit mm)*
G04 Created by KiCad (PCBNEW (5.1.4)-1) date 2019-10-03 10:29:34*
%MOMM*%
%LPD*%
G04 APERTURE LIST*
%ADD10C,0.400000*%
%ADD11O,1.700000X1.700000*%
%ADD12R,1.700000X1.700000*%
%ADD13O,1.200000X1.900000*%
%ADD14C,1.450000*%
%ADD15C,0.100000*%
%ADD16C,3.500000*%
%ADD17C,3.000000*%
%ADD18R,3.500000X3.500000*%
%ADD19C,1.500000*%
G04 APERTURE END LIST*
D10*
X167222380Y-110784047D02*
X166655714Y-112484047D01*
X166089047Y-110784047D01*
X165522380Y-111593571D02*
X164955714Y-111593571D01*
X164712857Y-112484047D02*
X165522380Y-112484047D01*
X165522380Y-110784047D01*
X164712857Y-110784047D01*
X163012857Y-112484047D02*
X163579523Y-111674523D01*
X163984285Y-112484047D02*
X163984285Y-110784047D01*
X163336666Y-110784047D01*
X163174761Y-110865000D01*
X163093809Y-110945952D01*
X163012857Y-111107857D01*
X163012857Y-111350714D01*
X163093809Y-111512619D01*
X163174761Y-111593571D01*
X163336666Y-111674523D01*
X163984285Y-111674523D01*
X161960476Y-111674523D02*
X161960476Y-112484047D01*
X162527142Y-110784047D02*
X161960476Y-111674523D01*
X161393809Y-110784047D01*
X158641428Y-110865000D02*
X158803333Y-110784047D01*
X159046190Y-110784047D01*
X159289047Y-110865000D01*
X159450952Y-111026904D01*
X159531904Y-111188809D01*
X159612857Y-111512619D01*
X159612857Y-111755476D01*
X159531904Y-112079285D01*
X159450952Y-112241190D01*
X159289047Y-112403095D01*
X159046190Y-112484047D01*
X158884285Y-112484047D01*
X158641428Y-112403095D01*
X158560476Y-112322142D01*
X158560476Y-111755476D01*
X158884285Y-111755476D01*
X157508095Y-110784047D02*
X157184285Y-110784047D01*
X157022380Y-110865000D01*
X156860476Y-111026904D01*
X156779523Y-111350714D01*
X156779523Y-111917380D01*
X156860476Y-112241190D01*
X157022380Y-112403095D01*
X157184285Y-112484047D01*
X157508095Y-112484047D01*
X157670000Y-112403095D01*
X157831904Y-112241190D01*
X157912857Y-111917380D01*
X157912857Y-111350714D01*
X157831904Y-111026904D01*
X157670000Y-110865000D01*
X157508095Y-110784047D01*
X155727142Y-110784047D02*
X155403333Y-110784047D01*
X155241428Y-110865000D01*
X155079523Y-111026904D01*
X154998571Y-111350714D01*
X154998571Y-111917380D01*
X155079523Y-112241190D01*
X155241428Y-112403095D01*
X155403333Y-112484047D01*
X155727142Y-112484047D01*
X155889047Y-112403095D01*
X156050952Y-112241190D01*
X156131904Y-111917380D01*
X156131904Y-111350714D01*
X156050952Y-111026904D01*
X155889047Y-110865000D01*
X155727142Y-110784047D01*
X154270000Y-112484047D02*
X154270000Y-110784047D01*
X153865238Y-110784047D01*
X153622380Y-110865000D01*
X153460476Y-111026904D01*
X153379523Y-111188809D01*
X153298571Y-111512619D01*
X153298571Y-111755476D01*
X153379523Y-112079285D01*
X153460476Y-112241190D01*
X153622380Y-112403095D01*
X153865238Y-112484047D01*
X154270000Y-112484047D01*
X150546190Y-111350714D02*
X150546190Y-112484047D01*
X151274761Y-111350714D02*
X151274761Y-112241190D01*
X151193809Y-112403095D01*
X151031904Y-112484047D01*
X150789047Y-112484047D01*
X150627142Y-112403095D01*
X150546190Y-112322142D01*
X148765238Y-112322142D02*
X148846190Y-112403095D01*
X149089047Y-112484047D01*
X149250952Y-112484047D01*
X149493809Y-112403095D01*
X149655714Y-112241190D01*
X149736666Y-112079285D01*
X149817619Y-111755476D01*
X149817619Y-111512619D01*
X149736666Y-111188809D01*
X149655714Y-111026904D01*
X149493809Y-110865000D01*
X149250952Y-110784047D01*
X149089047Y-110784047D01*
X148846190Y-110865000D01*
X148765238Y-110945952D01*
X146741428Y-112484047D02*
X146741428Y-110784047D01*
X146336666Y-110784047D01*
X146093809Y-110865000D01*
X145931904Y-111026904D01*
X145850952Y-111188809D01*
X145770000Y-111512619D01*
X145770000Y-111755476D01*
X145850952Y-112079285D01*
X145931904Y-112241190D01*
X146093809Y-112403095D01*
X146336666Y-112484047D01*
X146741428Y-112484047D01*
X144717619Y-110784047D02*
X144393809Y-110784047D01*
X144231904Y-110865000D01*
X144070000Y-111026904D01*
X143989047Y-111350714D01*
X143989047Y-111917380D01*
X144070000Y-112241190D01*
X144231904Y-112403095D01*
X144393809Y-112484047D01*
X144717619Y-112484047D01*
X144879523Y-112403095D01*
X145041428Y-112241190D01*
X145122380Y-111917380D01*
X145122380Y-111350714D01*
X145041428Y-111026904D01*
X144879523Y-110865000D01*
X144717619Y-110784047D01*
X142370000Y-110865000D02*
X142531904Y-110784047D01*
X142774761Y-110784047D01*
X143017619Y-110865000D01*
X143179523Y-111026904D01*
X143260476Y-111188809D01*
X143341428Y-111512619D01*
X143341428Y-111755476D01*
X143260476Y-112079285D01*
X143179523Y-112241190D01*
X143017619Y-112403095D01*
X142774761Y-112484047D01*
X142612857Y-112484047D01*
X142370000Y-112403095D01*
X142289047Y-112322142D01*
X142289047Y-111755476D01*
X142612857Y-111755476D01*
X140670000Y-110865000D02*
X140831904Y-110784047D01*
X141074761Y-110784047D01*
X141317619Y-110865000D01*
X141479523Y-111026904D01*
X141560476Y-111188809D01*
X141641428Y-111512619D01*
X141641428Y-111755476D01*
X141560476Y-112079285D01*
X141479523Y-112241190D01*
X141317619Y-112403095D01*
X141074761Y-112484047D01*
X140912857Y-112484047D01*
X140670000Y-112403095D01*
X140589047Y-112322142D01*
X140589047Y-111755476D01*
X140912857Y-111755476D01*
X139536666Y-110784047D02*
X139212857Y-110784047D01*
X139050952Y-110865000D01*
X138889047Y-111026904D01*
X138808095Y-111350714D01*
X138808095Y-111917380D01*
X138889047Y-112241190D01*
X139050952Y-112403095D01*
X139212857Y-112484047D01*
X139536666Y-112484047D01*
X139698571Y-112403095D01*
X139860476Y-112241190D01*
X139941428Y-111917380D01*
X139941428Y-111350714D01*
X139860476Y-111026904D01*
X139698571Y-110865000D01*
X139536666Y-110784047D01*
X138160476Y-112403095D02*
X137917619Y-112484047D01*
X137512857Y-112484047D01*
X137350952Y-112403095D01*
X137270000Y-112322142D01*
X137189047Y-112160238D01*
X137189047Y-111998333D01*
X137270000Y-111836428D01*
X137350952Y-111755476D01*
X137512857Y-111674523D01*
X137836666Y-111593571D01*
X137998571Y-111512619D01*
X138079523Y-111431666D01*
X138160476Y-111269761D01*
X138160476Y-111107857D01*
X138079523Y-110945952D01*
X137998571Y-110865000D01*
X137836666Y-110784047D01*
X137431904Y-110784047D01*
X137189047Y-110865000D01*
X135327142Y-111350714D02*
X134922380Y-112484047D01*
X134517619Y-111350714D01*
X132979523Y-112484047D02*
X133950952Y-112484047D01*
X133465238Y-112484047D02*
X133465238Y-110784047D01*
X133627142Y-111026904D01*
X133789047Y-111188809D01*
X133950952Y-111269761D01*
X182765238Y-115434047D02*
X182765238Y-113734047D01*
X182036666Y-115434047D02*
X182036666Y-114543571D01*
X182117619Y-114381666D01*
X182279523Y-114300714D01*
X182522380Y-114300714D01*
X182684285Y-114381666D01*
X182765238Y-114462619D01*
X181470000Y-114300714D02*
X180822380Y-114300714D01*
X181227142Y-113734047D02*
X181227142Y-115191190D01*
X181146190Y-115353095D01*
X180984285Y-115434047D01*
X180822380Y-115434047D01*
X180498571Y-114300714D02*
X179850952Y-114300714D01*
X180255714Y-113734047D02*
X180255714Y-115191190D01*
X180174761Y-115353095D01*
X180012857Y-115434047D01*
X179850952Y-115434047D01*
X179284285Y-114300714D02*
X179284285Y-116000714D01*
X179284285Y-114381666D02*
X179122380Y-114300714D01*
X178798571Y-114300714D01*
X178636666Y-114381666D01*
X178555714Y-114462619D01*
X178474761Y-114624523D01*
X178474761Y-115110238D01*
X178555714Y-115272142D01*
X178636666Y-115353095D01*
X178798571Y-115434047D01*
X179122380Y-115434047D01*
X179284285Y-115353095D01*
X177827142Y-115353095D02*
X177665238Y-115434047D01*
X177341428Y-115434047D01*
X177179523Y-115353095D01*
X177098571Y-115191190D01*
X177098571Y-115110238D01*
X177179523Y-114948333D01*
X177341428Y-114867380D01*
X177584285Y-114867380D01*
X177746190Y-114786428D01*
X177827142Y-114624523D01*
X177827142Y-114543571D01*
X177746190Y-114381666D01*
X177584285Y-114300714D01*
X177341428Y-114300714D01*
X177179523Y-114381666D01*
X176370000Y-115272142D02*
X176289047Y-115353095D01*
X176370000Y-115434047D01*
X176450952Y-115353095D01*
X176370000Y-115272142D01*
X176370000Y-115434047D01*
X176370000Y-114381666D02*
X176289047Y-114462619D01*
X176370000Y-114543571D01*
X176450952Y-114462619D01*
X176370000Y-114381666D01*
X176370000Y-114543571D01*
X174346190Y-113653095D02*
X175803333Y-115838809D01*
X172565238Y-113653095D02*
X174022380Y-115838809D01*
X171270000Y-114300714D02*
X171270000Y-115676904D01*
X171350952Y-115838809D01*
X171431904Y-115919761D01*
X171593809Y-116000714D01*
X171836666Y-116000714D01*
X171998571Y-115919761D01*
X171270000Y-115353095D02*
X171431904Y-115434047D01*
X171755714Y-115434047D01*
X171917619Y-115353095D01*
X171998571Y-115272142D01*
X172079523Y-115110238D01*
X172079523Y-114624523D01*
X171998571Y-114462619D01*
X171917619Y-114381666D01*
X171755714Y-114300714D01*
X171431904Y-114300714D01*
X171270000Y-114381666D01*
X170460476Y-115434047D02*
X170460476Y-114300714D01*
X170460476Y-113734047D02*
X170541428Y-113815000D01*
X170460476Y-113895952D01*
X170379523Y-113815000D01*
X170460476Y-113734047D01*
X170460476Y-113895952D01*
X169893809Y-114300714D02*
X169246190Y-114300714D01*
X169650952Y-113734047D02*
X169650952Y-115191190D01*
X169570000Y-115353095D01*
X169408095Y-115434047D01*
X169246190Y-115434047D01*
X168679523Y-115434047D02*
X168679523Y-113734047D01*
X167950952Y-115434047D02*
X167950952Y-114543571D01*
X168031904Y-114381666D01*
X168193809Y-114300714D01*
X168436666Y-114300714D01*
X168598571Y-114381666D01*
X168679523Y-114462619D01*
X166412857Y-114300714D02*
X166412857Y-115434047D01*
X167141428Y-114300714D02*
X167141428Y-115191190D01*
X167060476Y-115353095D01*
X166898571Y-115434047D01*
X166655714Y-115434047D01*
X166493809Y-115353095D01*
X166412857Y-115272142D01*
X165603333Y-115434047D02*
X165603333Y-113734047D01*
X165603333Y-114381666D02*
X165441428Y-114300714D01*
X165117619Y-114300714D01*
X164955714Y-114381666D01*
X164874761Y-114462619D01*
X164793809Y-114624523D01*
X164793809Y-115110238D01*
X164874761Y-115272142D01*
X164955714Y-115353095D01*
X165117619Y-115434047D01*
X165441428Y-115434047D01*
X165603333Y-115353095D01*
X164065238Y-115272142D02*
X163984285Y-115353095D01*
X164065238Y-115434047D01*
X164146190Y-115353095D01*
X164065238Y-115272142D01*
X164065238Y-115434047D01*
X162527142Y-115353095D02*
X162689047Y-115434047D01*
X163012857Y-115434047D01*
X163174761Y-115353095D01*
X163255714Y-115272142D01*
X163336666Y-115110238D01*
X163336666Y-114624523D01*
X163255714Y-114462619D01*
X163174761Y-114381666D01*
X163012857Y-114300714D01*
X162689047Y-114300714D01*
X162527142Y-114381666D01*
X161555714Y-115434047D02*
X161717619Y-115353095D01*
X161798571Y-115272142D01*
X161879523Y-115110238D01*
X161879523Y-114624523D01*
X161798571Y-114462619D01*
X161717619Y-114381666D01*
X161555714Y-114300714D01*
X161312857Y-114300714D01*
X161150952Y-114381666D01*
X161070000Y-114462619D01*
X160989047Y-114624523D01*
X160989047Y-115110238D01*
X161070000Y-115272142D01*
X161150952Y-115353095D01*
X161312857Y-115434047D01*
X161555714Y-115434047D01*
X160260476Y-115434047D02*
X160260476Y-114300714D01*
X160260476Y-114462619D02*
X160179523Y-114381666D01*
X160017619Y-114300714D01*
X159774761Y-114300714D01*
X159612857Y-114381666D01*
X159531904Y-114543571D01*
X159531904Y-115434047D01*
X159531904Y-114543571D02*
X159450952Y-114381666D01*
X159289047Y-114300714D01*
X159046190Y-114300714D01*
X158884285Y-114381666D01*
X158803333Y-114543571D01*
X158803333Y-115434047D01*
X156779523Y-113653095D02*
X158236666Y-115838809D01*
X155403333Y-113734047D02*
X156212857Y-113734047D01*
X156293809Y-114543571D01*
X156212857Y-114462619D01*
X156050952Y-114381666D01*
X155646190Y-114381666D01*
X155484285Y-114462619D01*
X155403333Y-114543571D01*
X155322380Y-114705476D01*
X155322380Y-115110238D01*
X155403333Y-115272142D01*
X155484285Y-115353095D01*
X155646190Y-115434047D01*
X156050952Y-115434047D01*
X156212857Y-115353095D01*
X156293809Y-115272142D01*
X154593809Y-115434047D02*
X154593809Y-113734047D01*
X153622380Y-115434047D01*
X153622380Y-113734047D01*
X152084285Y-114300714D02*
X152084285Y-115434047D01*
X152489047Y-113653095D02*
X152893809Y-114867380D01*
X151841428Y-114867380D01*
X150465238Y-114300714D02*
X150465238Y-115434047D01*
X150870000Y-113653095D02*
X151274761Y-114867380D01*
X150222380Y-114867380D01*
X149574761Y-115434047D02*
X149574761Y-113734047D01*
X148927142Y-113734047D01*
X148765238Y-113815000D01*
X148684285Y-113895952D01*
X148603333Y-114057857D01*
X148603333Y-114300714D01*
X148684285Y-114462619D01*
X148765238Y-114543571D01*
X148927142Y-114624523D01*
X149574761Y-114624523D01*
X146660476Y-113653095D02*
X148117619Y-115838809D01*
X146255714Y-114300714D02*
X145850952Y-115434047D01*
X145446190Y-114300714D01*
X144150952Y-115353095D02*
X144312857Y-115434047D01*
X144636666Y-115434047D01*
X144798571Y-115353095D01*
X144879523Y-115191190D01*
X144879523Y-114543571D01*
X144798571Y-114381666D01*
X144636666Y-114300714D01*
X144312857Y-114300714D01*
X144150952Y-114381666D01*
X144070000Y-114543571D01*
X144070000Y-114705476D01*
X144879523Y-114867380D01*
X143341428Y-115434047D02*
X143341428Y-114300714D01*
X143341428Y-114624523D02*
X143260476Y-114462619D01*
X143179523Y-114381666D01*
X143017619Y-114300714D01*
X142855714Y-114300714D01*
X142450952Y-114300714D02*
X142046190Y-115434047D01*
X141641428Y-114300714D02*
X142046190Y-115434047D01*
X142208095Y-115838809D01*
X142289047Y-115919761D01*
X142450952Y-116000714D01*
X140993809Y-114786428D02*
X139698571Y-114786428D01*
X138160476Y-114300714D02*
X138160476Y-115676904D01*
X138241428Y-115838809D01*
X138322380Y-115919761D01*
X138484285Y-116000714D01*
X138727142Y-116000714D01*
X138889047Y-115919761D01*
X138160476Y-115353095D02*
X138322380Y-115434047D01*
X138646190Y-115434047D01*
X138808095Y-115353095D01*
X138889047Y-115272142D01*
X138970000Y-115110238D01*
X138970000Y-114624523D01*
X138889047Y-114462619D01*
X138808095Y-114381666D01*
X138646190Y-114300714D01*
X138322380Y-114300714D01*
X138160476Y-114381666D01*
X137108095Y-115434047D02*
X137270000Y-115353095D01*
X137350952Y-115272142D01*
X137431904Y-115110238D01*
X137431904Y-114624523D01*
X137350952Y-114462619D01*
X137270000Y-114381666D01*
X137108095Y-114300714D01*
X136865238Y-114300714D01*
X136703333Y-114381666D01*
X136622380Y-114462619D01*
X136541428Y-114624523D01*
X136541428Y-115110238D01*
X136622380Y-115272142D01*
X136703333Y-115353095D01*
X136865238Y-115434047D01*
X137108095Y-115434047D01*
X135570000Y-115434047D02*
X135731904Y-115353095D01*
X135812857Y-115272142D01*
X135893809Y-115110238D01*
X135893809Y-114624523D01*
X135812857Y-114462619D01*
X135731904Y-114381666D01*
X135570000Y-114300714D01*
X135327142Y-114300714D01*
X135165238Y-114381666D01*
X135084285Y-114462619D01*
X135003333Y-114624523D01*
X135003333Y-115110238D01*
X135084285Y-115272142D01*
X135165238Y-115353095D01*
X135327142Y-115434047D01*
X135570000Y-115434047D01*
X133546190Y-115434047D02*
X133546190Y-113734047D01*
X133546190Y-115353095D02*
X133708095Y-115434047D01*
X134031904Y-115434047D01*
X134193809Y-115353095D01*
X134274761Y-115272142D01*
X134355714Y-115110238D01*
X134355714Y-114624523D01*
X134274761Y-114462619D01*
X134193809Y-114381666D01*
X134031904Y-114300714D01*
X133708095Y-114300714D01*
X133546190Y-114381666D01*
X132736666Y-114786428D02*
X131441428Y-114786428D01*
X129903333Y-114300714D02*
X129903333Y-115434047D01*
X130631904Y-114300714D02*
X130631904Y-115191190D01*
X130550952Y-115353095D01*
X130389047Y-115434047D01*
X130146190Y-115434047D01*
X129984285Y-115353095D01*
X129903333Y-115272142D01*
X128365238Y-115353095D02*
X128527142Y-115434047D01*
X128850952Y-115434047D01*
X129012857Y-115353095D01*
X129093809Y-115272142D01*
X129174761Y-115110238D01*
X129174761Y-114624523D01*
X129093809Y-114462619D01*
X129012857Y-114381666D01*
X128850952Y-114300714D01*
X128527142Y-114300714D01*
X128365238Y-114381666D01*
X127636666Y-114786428D02*
X126341428Y-114786428D01*
X124803333Y-115434047D02*
X124803333Y-113734047D01*
X124803333Y-115353095D02*
X124965238Y-115434047D01*
X125289047Y-115434047D01*
X125450952Y-115353095D01*
X125531904Y-115272142D01*
X125612857Y-115110238D01*
X125612857Y-114624523D01*
X125531904Y-114462619D01*
X125450952Y-114381666D01*
X125289047Y-114300714D01*
X124965238Y-114300714D01*
X124803333Y-114381666D01*
X123750952Y-115434047D02*
X123912857Y-115353095D01*
X123993809Y-115272142D01*
X124074761Y-115110238D01*
X124074761Y-114624523D01*
X123993809Y-114462619D01*
X123912857Y-114381666D01*
X123750952Y-114300714D01*
X123508095Y-114300714D01*
X123346190Y-114381666D01*
X123265238Y-114462619D01*
X123184285Y-114624523D01*
X123184285Y-115110238D01*
X123265238Y-115272142D01*
X123346190Y-115353095D01*
X123508095Y-115434047D01*
X123750952Y-115434047D01*
X121727142Y-114300714D02*
X121727142Y-115676904D01*
X121808095Y-115838809D01*
X121889047Y-115919761D01*
X122050952Y-116000714D01*
X122293809Y-116000714D01*
X122455714Y-115919761D01*
X121727142Y-115353095D02*
X121889047Y-115434047D01*
X122212857Y-115434047D01*
X122374761Y-115353095D01*
X122455714Y-115272142D01*
X122536666Y-115110238D01*
X122536666Y-114624523D01*
X122455714Y-114462619D01*
X122374761Y-114381666D01*
X122212857Y-114300714D01*
X121889047Y-114300714D01*
X121727142Y-114381666D01*
X120189047Y-114300714D02*
X120189047Y-115676904D01*
X120270000Y-115838809D01*
X120350952Y-115919761D01*
X120512857Y-116000714D01*
X120755714Y-116000714D01*
X120917619Y-115919761D01*
X120189047Y-115353095D02*
X120350952Y-115434047D01*
X120674761Y-115434047D01*
X120836666Y-115353095D01*
X120917619Y-115272142D01*
X120998571Y-115110238D01*
X120998571Y-114624523D01*
X120917619Y-114462619D01*
X120836666Y-114381666D01*
X120674761Y-114300714D01*
X120350952Y-114300714D01*
X120189047Y-114381666D01*
X119136666Y-115434047D02*
X119298571Y-115353095D01*
X119379523Y-115272142D01*
X119460476Y-115110238D01*
X119460476Y-114624523D01*
X119379523Y-114462619D01*
X119298571Y-114381666D01*
X119136666Y-114300714D01*
X118893809Y-114300714D01*
X118731904Y-114381666D01*
X118650952Y-114462619D01*
X118570000Y-114624523D01*
X118570000Y-115110238D01*
X118650952Y-115272142D01*
X118731904Y-115353095D01*
X118893809Y-115434047D01*
X119136666Y-115434047D01*
X117922380Y-115353095D02*
X117760476Y-115434047D01*
X117436666Y-115434047D01*
X117274761Y-115353095D01*
X117193809Y-115191190D01*
X117193809Y-115110238D01*
X117274761Y-114948333D01*
X117436666Y-114867380D01*
X117679523Y-114867380D01*
X117841428Y-114786428D01*
X117922380Y-114624523D01*
X117922380Y-114543571D01*
X117841428Y-114381666D01*
X117679523Y-114300714D01*
X117436666Y-114300714D01*
X117274761Y-114381666D01*
X176612857Y-121172142D02*
X176693809Y-121253095D01*
X176936666Y-121334047D01*
X177098571Y-121334047D01*
X177341428Y-121253095D01*
X177503333Y-121091190D01*
X177584285Y-120929285D01*
X177665238Y-120605476D01*
X177665238Y-120362619D01*
X177584285Y-120038809D01*
X177503333Y-119876904D01*
X177341428Y-119715000D01*
X177098571Y-119634047D01*
X176936666Y-119634047D01*
X176693809Y-119715000D01*
X176612857Y-119795952D01*
X175641428Y-121334047D02*
X175803333Y-121253095D01*
X175884285Y-121172142D01*
X175965238Y-121010238D01*
X175965238Y-120524523D01*
X175884285Y-120362619D01*
X175803333Y-120281666D01*
X175641428Y-120200714D01*
X175398571Y-120200714D01*
X175236666Y-120281666D01*
X175155714Y-120362619D01*
X175074761Y-120524523D01*
X175074761Y-121010238D01*
X175155714Y-121172142D01*
X175236666Y-121253095D01*
X175398571Y-121334047D01*
X175641428Y-121334047D01*
X174346190Y-120200714D02*
X174346190Y-121334047D01*
X174346190Y-120362619D02*
X174265238Y-120281666D01*
X174103333Y-120200714D01*
X173860476Y-120200714D01*
X173698571Y-120281666D01*
X173617619Y-120443571D01*
X173617619Y-121334047D01*
X172079523Y-121253095D02*
X172241428Y-121334047D01*
X172565238Y-121334047D01*
X172727142Y-121253095D01*
X172808095Y-121172142D01*
X172889047Y-121010238D01*
X172889047Y-120524523D01*
X172808095Y-120362619D01*
X172727142Y-120281666D01*
X172565238Y-120200714D01*
X172241428Y-120200714D01*
X172079523Y-120281666D01*
X170703333Y-121253095D02*
X170865238Y-121334047D01*
X171189047Y-121334047D01*
X171350952Y-121253095D01*
X171431904Y-121091190D01*
X171431904Y-120443571D01*
X171350952Y-120281666D01*
X171189047Y-120200714D01*
X170865238Y-120200714D01*
X170703333Y-120281666D01*
X170622380Y-120443571D01*
X170622380Y-120605476D01*
X171431904Y-120767380D01*
X169893809Y-120200714D02*
X169893809Y-121900714D01*
X169893809Y-120281666D02*
X169731904Y-120200714D01*
X169408095Y-120200714D01*
X169246190Y-120281666D01*
X169165238Y-120362619D01*
X169084285Y-120524523D01*
X169084285Y-121010238D01*
X169165238Y-121172142D01*
X169246190Y-121253095D01*
X169408095Y-121334047D01*
X169731904Y-121334047D01*
X169893809Y-121253095D01*
X168598571Y-120200714D02*
X167950952Y-120200714D01*
X168355714Y-119634047D02*
X168355714Y-121091190D01*
X168274761Y-121253095D01*
X168112857Y-121334047D01*
X167950952Y-121334047D01*
X167384285Y-121172142D02*
X167303333Y-121253095D01*
X167384285Y-121334047D01*
X167465238Y-121253095D01*
X167384285Y-121172142D01*
X167384285Y-121334047D01*
X167384285Y-120281666D02*
X167303333Y-120362619D01*
X167384285Y-120443571D01*
X167465238Y-120362619D01*
X167384285Y-120281666D01*
X167384285Y-120443571D01*
X165522380Y-119634047D02*
X164955714Y-121334047D01*
X164389047Y-119634047D01*
X163093809Y-121334047D02*
X163093809Y-120443571D01*
X163174761Y-120281666D01*
X163336666Y-120200714D01*
X163660476Y-120200714D01*
X163822380Y-120281666D01*
X163093809Y-121253095D02*
X163255714Y-121334047D01*
X163660476Y-121334047D01*
X163822380Y-121253095D01*
X163903333Y-121091190D01*
X163903333Y-120929285D01*
X163822380Y-120767380D01*
X163660476Y-120686428D01*
X163255714Y-120686428D01*
X163093809Y-120605476D01*
X162041428Y-121334047D02*
X162203333Y-121253095D01*
X162284285Y-121091190D01*
X162284285Y-119634047D01*
X160746190Y-121253095D02*
X160908095Y-121334047D01*
X161231904Y-121334047D01*
X161393809Y-121253095D01*
X161474761Y-121091190D01*
X161474761Y-120443571D01*
X161393809Y-120281666D01*
X161231904Y-120200714D01*
X160908095Y-120200714D01*
X160746190Y-120281666D01*
X160665238Y-120443571D01*
X160665238Y-120605476D01*
X161474761Y-120767380D01*
X159936666Y-121334047D02*
X159936666Y-120200714D01*
X159936666Y-120524523D02*
X159855714Y-120362619D01*
X159774761Y-120281666D01*
X159612857Y-120200714D01*
X159450952Y-120200714D01*
X158884285Y-121334047D02*
X158884285Y-120200714D01*
X158884285Y-119634047D02*
X158965238Y-119715000D01*
X158884285Y-119795952D01*
X158803333Y-119715000D01*
X158884285Y-119634047D01*
X158884285Y-119795952D01*
X157831904Y-121334047D02*
X157993809Y-121253095D01*
X158074761Y-121172142D01*
X158155714Y-121010238D01*
X158155714Y-120524523D01*
X158074761Y-120362619D01*
X157993809Y-120281666D01*
X157831904Y-120200714D01*
X157589047Y-120200714D01*
X157427142Y-120281666D01*
X157346190Y-120362619D01*
X157265238Y-120524523D01*
X157265238Y-121010238D01*
X157346190Y-121172142D01*
X157427142Y-121253095D01*
X157589047Y-121334047D01*
X157831904Y-121334047D01*
X155241428Y-121334047D02*
X155241428Y-119634047D01*
X154270000Y-121334047D01*
X154270000Y-119634047D01*
X152731904Y-121334047D02*
X152731904Y-120443571D01*
X152812857Y-120281666D01*
X152974761Y-120200714D01*
X153298571Y-120200714D01*
X153460476Y-120281666D01*
X152731904Y-121253095D02*
X152893809Y-121334047D01*
X153298571Y-121334047D01*
X153460476Y-121253095D01*
X153541428Y-121091190D01*
X153541428Y-120929285D01*
X153460476Y-120767380D01*
X153298571Y-120686428D01*
X152893809Y-120686428D01*
X152731904Y-120605476D01*
X151922380Y-120200714D02*
X151922380Y-121900714D01*
X151922380Y-120281666D02*
X151760476Y-120200714D01*
X151436666Y-120200714D01*
X151274761Y-120281666D01*
X151193809Y-120362619D01*
X151112857Y-120524523D01*
X151112857Y-121010238D01*
X151193809Y-121172142D01*
X151274761Y-121253095D01*
X151436666Y-121334047D01*
X151760476Y-121334047D01*
X151922380Y-121253095D01*
X150384285Y-120200714D02*
X150384285Y-121900714D01*
X150384285Y-120281666D02*
X150222380Y-120200714D01*
X149898571Y-120200714D01*
X149736666Y-120281666D01*
X149655714Y-120362619D01*
X149574761Y-120524523D01*
X149574761Y-121010238D01*
X149655714Y-121172142D01*
X149736666Y-121253095D01*
X149898571Y-121334047D01*
X150222380Y-121334047D01*
X150384285Y-121253095D01*
X148846190Y-121334047D02*
X148846190Y-120200714D01*
X148846190Y-119634047D02*
X148927142Y-119715000D01*
X148846190Y-119795952D01*
X148765238Y-119715000D01*
X148846190Y-119634047D01*
X148846190Y-119795952D01*
X147955714Y-121253095D02*
X147955714Y-121334047D01*
X148036666Y-121495952D01*
X148117619Y-121576904D01*
X145041428Y-119715000D02*
X145203333Y-119634047D01*
X145446190Y-119634047D01*
X145689047Y-119715000D01*
X145850952Y-119876904D01*
X145931904Y-120038809D01*
X146012857Y-120362619D01*
X146012857Y-120605476D01*
X145931904Y-120929285D01*
X145850952Y-121091190D01*
X145689047Y-121253095D01*
X145446190Y-121334047D01*
X145284285Y-121334047D01*
X145041428Y-121253095D01*
X144960476Y-121172142D01*
X144960476Y-120605476D01*
X145284285Y-120605476D01*
X144231904Y-121334047D02*
X144231904Y-120200714D01*
X144231904Y-119634047D02*
X144312857Y-119715000D01*
X144231904Y-119795952D01*
X144150952Y-119715000D01*
X144231904Y-119634047D01*
X144231904Y-119795952D01*
X142693809Y-121334047D02*
X142693809Y-120443571D01*
X142774761Y-120281666D01*
X142936666Y-120200714D01*
X143260476Y-120200714D01*
X143422380Y-120281666D01*
X142693809Y-121253095D02*
X142855714Y-121334047D01*
X143260476Y-121334047D01*
X143422380Y-121253095D01*
X143503333Y-121091190D01*
X143503333Y-120929285D01*
X143422380Y-120767380D01*
X143260476Y-120686428D01*
X142855714Y-120686428D01*
X142693809Y-120605476D01*
X141155714Y-121253095D02*
X141317619Y-121334047D01*
X141641428Y-121334047D01*
X141803333Y-121253095D01*
X141884285Y-121172142D01*
X141965238Y-121010238D01*
X141965238Y-120524523D01*
X141884285Y-120362619D01*
X141803333Y-120281666D01*
X141641428Y-120200714D01*
X141317619Y-120200714D01*
X141155714Y-120281666D01*
X140184285Y-121334047D02*
X140346190Y-121253095D01*
X140427142Y-121172142D01*
X140508095Y-121010238D01*
X140508095Y-120524523D01*
X140427142Y-120362619D01*
X140346190Y-120281666D01*
X140184285Y-120200714D01*
X139941428Y-120200714D01*
X139779523Y-120281666D01*
X139698571Y-120362619D01*
X139617619Y-120524523D01*
X139617619Y-121010238D01*
X139698571Y-121172142D01*
X139779523Y-121253095D01*
X139941428Y-121334047D01*
X140184285Y-121334047D01*
X138889047Y-121334047D02*
X138889047Y-120200714D01*
X138889047Y-120362619D02*
X138808095Y-120281666D01*
X138646190Y-120200714D01*
X138403333Y-120200714D01*
X138241428Y-120281666D01*
X138160476Y-120443571D01*
X138160476Y-121334047D01*
X138160476Y-120443571D02*
X138079523Y-120281666D01*
X137917619Y-120200714D01*
X137674761Y-120200714D01*
X137512857Y-120281666D01*
X137431904Y-120443571D01*
X137431904Y-121334047D01*
X136379523Y-121334047D02*
X136541428Y-121253095D01*
X136622380Y-121172142D01*
X136703333Y-121010238D01*
X136703333Y-120524523D01*
X136622380Y-120362619D01*
X136541428Y-120281666D01*
X136379523Y-120200714D01*
X136136666Y-120200714D01*
X135974761Y-120281666D01*
X135893809Y-120362619D01*
X135812857Y-120524523D01*
X135812857Y-121010238D01*
X135893809Y-121172142D01*
X135974761Y-121253095D01*
X136136666Y-121334047D01*
X136379523Y-121334047D01*
X134031904Y-119634047D02*
X133060476Y-119634047D01*
X133546190Y-121334047D02*
X133546190Y-119634047D01*
X132250952Y-121334047D02*
X132412857Y-121253095D01*
X132493809Y-121172142D01*
X132574761Y-121010238D01*
X132574761Y-120524523D01*
X132493809Y-120362619D01*
X132412857Y-120281666D01*
X132250952Y-120200714D01*
X132008095Y-120200714D01*
X131846190Y-120281666D01*
X131765238Y-120362619D01*
X131684285Y-120524523D01*
X131684285Y-121010238D01*
X131765238Y-121172142D01*
X131846190Y-121253095D01*
X132008095Y-121334047D01*
X132250952Y-121334047D01*
X130955714Y-121334047D02*
X130955714Y-120200714D01*
X130955714Y-120362619D02*
X130874761Y-120281666D01*
X130712857Y-120200714D01*
X130470000Y-120200714D01*
X130308095Y-120281666D01*
X130227142Y-120443571D01*
X130227142Y-121334047D01*
X130227142Y-120443571D02*
X130146190Y-120281666D01*
X129984285Y-120200714D01*
X129741428Y-120200714D01*
X129579523Y-120281666D01*
X129498571Y-120443571D01*
X129498571Y-121334047D01*
X128689047Y-121334047D02*
X128689047Y-119634047D01*
X128689047Y-120281666D02*
X128527142Y-120200714D01*
X128203333Y-120200714D01*
X128041428Y-120281666D01*
X127960476Y-120362619D01*
X127879523Y-120524523D01*
X127879523Y-121010238D01*
X127960476Y-121172142D01*
X128041428Y-121253095D01*
X128203333Y-121334047D01*
X128527142Y-121334047D01*
X128689047Y-121253095D01*
X126908095Y-121334047D02*
X127070000Y-121253095D01*
X127150952Y-121172142D01*
X127231904Y-121010238D01*
X127231904Y-120524523D01*
X127150952Y-120362619D01*
X127070000Y-120281666D01*
X126908095Y-120200714D01*
X126665238Y-120200714D01*
X126503333Y-120281666D01*
X126422380Y-120362619D01*
X126341428Y-120524523D01*
X126341428Y-121010238D01*
X126422380Y-121172142D01*
X126503333Y-121253095D01*
X126665238Y-121334047D01*
X126908095Y-121334047D01*
X125370000Y-121334047D02*
X125531904Y-121253095D01*
X125612857Y-121091190D01*
X125612857Y-119634047D01*
X123993809Y-121334047D02*
X123993809Y-120443571D01*
X124074761Y-120281666D01*
X124236666Y-120200714D01*
X124560476Y-120200714D01*
X124722380Y-120281666D01*
X123993809Y-121253095D02*
X124155714Y-121334047D01*
X124560476Y-121334047D01*
X124722380Y-121253095D01*
X124803333Y-121091190D01*
X124803333Y-120929285D01*
X124722380Y-120767380D01*
X124560476Y-120686428D01*
X124155714Y-120686428D01*
X123993809Y-120605476D01*
X123184285Y-120200714D02*
X123184285Y-121334047D01*
X123184285Y-120362619D02*
X123103333Y-120281666D01*
X122941428Y-120200714D01*
X122698571Y-120200714D01*
X122536666Y-120281666D01*
X122455714Y-120443571D01*
X122455714Y-121334047D01*
X180174761Y-126748333D02*
X179365238Y-126748333D01*
X180336666Y-127234047D02*
X179770000Y-125534047D01*
X179203333Y-127234047D01*
X178636666Y-127234047D02*
X178636666Y-126100714D01*
X178636666Y-126424523D02*
X178555714Y-126262619D01*
X178474761Y-126181666D01*
X178312857Y-126100714D01*
X178150952Y-126100714D01*
X177827142Y-126100714D02*
X177179523Y-126100714D01*
X177584285Y-125534047D02*
X177584285Y-126991190D01*
X177503333Y-127153095D01*
X177341428Y-127234047D01*
X177179523Y-127234047D01*
X176774761Y-126100714D02*
X176450952Y-127234047D01*
X176127142Y-126424523D01*
X175803333Y-127234047D01*
X175479523Y-126100714D01*
X174589047Y-127234047D02*
X174750952Y-127153095D01*
X174831904Y-127072142D01*
X174912857Y-126910238D01*
X174912857Y-126424523D01*
X174831904Y-126262619D01*
X174750952Y-126181666D01*
X174589047Y-126100714D01*
X174346190Y-126100714D01*
X174184285Y-126181666D01*
X174103333Y-126262619D01*
X174022380Y-126424523D01*
X174022380Y-126910238D01*
X174103333Y-127072142D01*
X174184285Y-127153095D01*
X174346190Y-127234047D01*
X174589047Y-127234047D01*
X173293809Y-127234047D02*
X173293809Y-126100714D01*
X173293809Y-126424523D02*
X173212857Y-126262619D01*
X173131904Y-126181666D01*
X172970000Y-126100714D01*
X172808095Y-126100714D01*
X172241428Y-127234047D02*
X172241428Y-125534047D01*
X172079523Y-126586428D02*
X171593809Y-127234047D01*
X171593809Y-126100714D02*
X172241428Y-126748333D01*
X170946190Y-127153095D02*
X170784285Y-127234047D01*
X170460476Y-127234047D01*
X170298571Y-127153095D01*
X170217619Y-126991190D01*
X170217619Y-126910238D01*
X170298571Y-126748333D01*
X170460476Y-126667380D01*
X170703333Y-126667380D01*
X170865238Y-126586428D01*
X170946190Y-126424523D01*
X170946190Y-126343571D01*
X170865238Y-126181666D01*
X170703333Y-126100714D01*
X170460476Y-126100714D01*
X170298571Y-126181666D01*
X169489047Y-127072142D02*
X169408095Y-127153095D01*
X169489047Y-127234047D01*
X169569999Y-127153095D01*
X169489047Y-127072142D01*
X169489047Y-127234047D01*
X169489047Y-126181666D02*
X169408095Y-126262619D01*
X169489047Y-126343571D01*
X169569999Y-126262619D01*
X169489047Y-126181666D01*
X169489047Y-126343571D01*
X166493809Y-125615000D02*
X166655714Y-125534047D01*
X166898571Y-125534047D01*
X167141428Y-125615000D01*
X167303333Y-125776904D01*
X167384285Y-125938809D01*
X167465238Y-126262619D01*
X167465238Y-126505476D01*
X167384285Y-126829285D01*
X167303333Y-126991190D01*
X167141428Y-127153095D01*
X166898571Y-127234047D01*
X166736666Y-127234047D01*
X166493809Y-127153095D01*
X166412857Y-127072142D01*
X166412857Y-126505476D01*
X166736666Y-126505476D01*
X165684285Y-127234047D02*
X165684285Y-126100714D01*
X165684285Y-125534047D02*
X165765238Y-125615000D01*
X165684285Y-125695952D01*
X165603333Y-125615000D01*
X165684285Y-125534047D01*
X165684285Y-125695952D01*
X164146190Y-127234047D02*
X164146190Y-126343571D01*
X164227142Y-126181666D01*
X164389047Y-126100714D01*
X164712857Y-126100714D01*
X164874761Y-126181666D01*
X164146190Y-127153095D02*
X164308095Y-127234047D01*
X164712857Y-127234047D01*
X164874761Y-127153095D01*
X164955714Y-126991190D01*
X164955714Y-126829285D01*
X164874761Y-126667380D01*
X164712857Y-126586428D01*
X164308095Y-126586428D01*
X164146190Y-126505476D01*
X162608095Y-127153095D02*
X162769999Y-127234047D01*
X163093809Y-127234047D01*
X163255714Y-127153095D01*
X163336666Y-127072142D01*
X163417619Y-126910238D01*
X163417619Y-126424523D01*
X163336666Y-126262619D01*
X163255714Y-126181666D01*
X163093809Y-126100714D01*
X162769999Y-126100714D01*
X162608095Y-126181666D01*
X161636666Y-127234047D02*
X161798571Y-127153095D01*
X161879523Y-127072142D01*
X161960476Y-126910238D01*
X161960476Y-126424523D01*
X161879523Y-126262619D01*
X161798571Y-126181666D01*
X161636666Y-126100714D01*
X161393809Y-126100714D01*
X161231904Y-126181666D01*
X161150952Y-126262619D01*
X161069999Y-126424523D01*
X161069999Y-126910238D01*
X161150952Y-127072142D01*
X161231904Y-127153095D01*
X161393809Y-127234047D01*
X161636666Y-127234047D01*
X160341428Y-127234047D02*
X160341428Y-126100714D01*
X160341428Y-126262619D02*
X160260476Y-126181666D01*
X160098571Y-126100714D01*
X159855714Y-126100714D01*
X159693809Y-126181666D01*
X159612857Y-126343571D01*
X159612857Y-127234047D01*
X159612857Y-126343571D02*
X159531904Y-126181666D01*
X159369999Y-126100714D01*
X159127142Y-126100714D01*
X158965238Y-126181666D01*
X158884285Y-126343571D01*
X158884285Y-127234047D01*
X157831904Y-127234047D02*
X157993809Y-127153095D01*
X158074761Y-127072142D01*
X158155714Y-126910238D01*
X158155714Y-126424523D01*
X158074761Y-126262619D01*
X157993809Y-126181666D01*
X157831904Y-126100714D01*
X157589047Y-126100714D01*
X157427142Y-126181666D01*
X157346190Y-126262619D01*
X157265238Y-126424523D01*
X157265238Y-126910238D01*
X157346190Y-127072142D01*
X157427142Y-127153095D01*
X157589047Y-127234047D01*
X157831904Y-127234047D01*
X155484285Y-125534047D02*
X154512857Y-125534047D01*
X154998571Y-127234047D02*
X154998571Y-125534047D01*
X153703333Y-127234047D02*
X153865238Y-127153095D01*
X153946190Y-127072142D01*
X154027142Y-126910238D01*
X154027142Y-126424523D01*
X153946190Y-126262619D01*
X153865238Y-126181666D01*
X153703333Y-126100714D01*
X153460476Y-126100714D01*
X153298571Y-126181666D01*
X153217619Y-126262619D01*
X153136666Y-126424523D01*
X153136666Y-126910238D01*
X153217619Y-127072142D01*
X153298571Y-127153095D01*
X153460476Y-127234047D01*
X153703333Y-127234047D01*
X152408095Y-127234047D02*
X152408095Y-126100714D01*
X152408095Y-126262619D02*
X152327142Y-126181666D01*
X152165238Y-126100714D01*
X151922380Y-126100714D01*
X151760476Y-126181666D01*
X151679523Y-126343571D01*
X151679523Y-127234047D01*
X151679523Y-126343571D02*
X151598571Y-126181666D01*
X151436666Y-126100714D01*
X151193809Y-126100714D01*
X151031904Y-126181666D01*
X150950952Y-126343571D01*
X150950952Y-127234047D01*
X150141428Y-127234047D02*
X150141428Y-125534047D01*
X150141428Y-126181666D02*
X149979523Y-126100714D01*
X149655714Y-126100714D01*
X149493809Y-126181666D01*
X149412857Y-126262619D01*
X149331904Y-126424523D01*
X149331904Y-126910238D01*
X149412857Y-127072142D01*
X149493809Y-127153095D01*
X149655714Y-127234047D01*
X149979523Y-127234047D01*
X150141428Y-127153095D01*
X148360476Y-127234047D02*
X148522380Y-127153095D01*
X148603333Y-127072142D01*
X148684285Y-126910238D01*
X148684285Y-126424523D01*
X148603333Y-126262619D01*
X148522380Y-126181666D01*
X148360476Y-126100714D01*
X148117619Y-126100714D01*
X147955714Y-126181666D01*
X147874761Y-126262619D01*
X147793809Y-126424523D01*
X147793809Y-126910238D01*
X147874761Y-127072142D01*
X147955714Y-127153095D01*
X148117619Y-127234047D01*
X148360476Y-127234047D01*
X146822380Y-127234047D02*
X146984285Y-127153095D01*
X147065238Y-126991190D01*
X147065238Y-125534047D01*
X145446190Y-127234047D02*
X145446190Y-126343571D01*
X145527142Y-126181666D01*
X145689047Y-126100714D01*
X146012857Y-126100714D01*
X146174761Y-126181666D01*
X145446190Y-127153095D02*
X145608095Y-127234047D01*
X146012857Y-127234047D01*
X146174761Y-127153095D01*
X146255714Y-126991190D01*
X146255714Y-126829285D01*
X146174761Y-126667380D01*
X146012857Y-126586428D01*
X145608095Y-126586428D01*
X145446190Y-126505476D01*
X144636666Y-126100714D02*
X144636666Y-127234047D01*
X144636666Y-126262619D02*
X144555714Y-126181666D01*
X144393809Y-126100714D01*
X144150952Y-126100714D01*
X143989047Y-126181666D01*
X143908095Y-126343571D01*
X143908095Y-127234047D01*
X141317619Y-127881666D02*
X141398571Y-127800714D01*
X141560476Y-127557857D01*
X141641428Y-127395952D01*
X141722380Y-127153095D01*
X141803333Y-126748333D01*
X141803333Y-126424523D01*
X141722380Y-126019761D01*
X141641428Y-125776904D01*
X141560476Y-125615000D01*
X141398571Y-125372142D01*
X141317619Y-125291190D01*
X139698571Y-127072142D02*
X139779523Y-127153095D01*
X140022380Y-127234047D01*
X140184285Y-127234047D01*
X140427142Y-127153095D01*
X140589047Y-126991190D01*
X140669999Y-126829285D01*
X140750952Y-126505476D01*
X140750952Y-126262619D01*
X140669999Y-125938809D01*
X140589047Y-125776904D01*
X140427142Y-125615000D01*
X140184285Y-125534047D01*
X140022380Y-125534047D01*
X139779523Y-125615000D01*
X139698571Y-125695952D01*
X137998571Y-127072142D02*
X138079523Y-127153095D01*
X138322380Y-127234047D01*
X138484285Y-127234047D01*
X138727142Y-127153095D01*
X138889047Y-126991190D01*
X138969999Y-126829285D01*
X139050952Y-126505476D01*
X139050952Y-126262619D01*
X138969999Y-125938809D01*
X138889047Y-125776904D01*
X138727142Y-125615000D01*
X138484285Y-125534047D01*
X138322380Y-125534047D01*
X138079523Y-125615000D01*
X137998571Y-125695952D01*
X137269999Y-126586428D02*
X135974761Y-126586428D01*
X134598571Y-126343571D02*
X134355714Y-126424523D01*
X134274761Y-126505476D01*
X134193809Y-126667380D01*
X134193809Y-126910238D01*
X134274761Y-127072142D01*
X134355714Y-127153095D01*
X134517619Y-127234047D01*
X135165238Y-127234047D01*
X135165238Y-125534047D01*
X134598571Y-125534047D01*
X134436666Y-125615000D01*
X134355714Y-125695952D01*
X134274761Y-125857857D01*
X134274761Y-126019761D01*
X134355714Y-126181666D01*
X134436666Y-126262619D01*
X134598571Y-126343571D01*
X135165238Y-126343571D01*
X133141428Y-126424523D02*
X133141428Y-127234047D01*
X133708095Y-125534047D02*
X133141428Y-126424523D01*
X132574761Y-125534047D01*
X132008095Y-126586428D02*
X130712857Y-126586428D01*
X129903333Y-127234047D02*
X129903333Y-125534047D01*
X128931904Y-127234047D01*
X128931904Y-125534047D01*
X127150952Y-127072142D02*
X127231904Y-127153095D01*
X127474761Y-127234047D01*
X127636666Y-127234047D01*
X127879523Y-127153095D01*
X128041428Y-126991190D01*
X128122380Y-126829285D01*
X128203333Y-126505476D01*
X128203333Y-126262619D01*
X128122380Y-125938809D01*
X128041428Y-125776904D01*
X127879523Y-125615000D01*
X127636666Y-125534047D01*
X127474761Y-125534047D01*
X127231904Y-125615000D01*
X127150952Y-125695952D01*
X126422380Y-126586428D02*
X125127142Y-126586428D01*
X123589047Y-126100714D02*
X123589047Y-127234047D01*
X123993809Y-125453095D02*
X124398571Y-126667380D01*
X123346190Y-126667380D01*
X122698571Y-127072142D02*
X122617619Y-127153095D01*
X122698571Y-127234047D01*
X122779523Y-127153095D01*
X122698571Y-127072142D01*
X122698571Y-127234047D01*
X121565238Y-125534047D02*
X121403333Y-125534047D01*
X121241428Y-125615000D01*
X121160476Y-125695952D01*
X121079523Y-125857857D01*
X120998571Y-126181666D01*
X120998571Y-126586428D01*
X121079523Y-126910238D01*
X121160476Y-127072142D01*
X121241428Y-127153095D01*
X121403333Y-127234047D01*
X121565238Y-127234047D01*
X121727142Y-127153095D01*
X121808095Y-127072142D01*
X121889047Y-126910238D01*
X121969999Y-126586428D01*
X121969999Y-126181666D01*
X121889047Y-125857857D01*
X121808095Y-125695952D01*
X121727142Y-125615000D01*
X121565238Y-125534047D01*
X120431904Y-127881666D02*
X120350952Y-127800714D01*
X120189047Y-127557857D01*
X120108095Y-127395952D01*
X120027142Y-127153095D01*
X119946190Y-126748333D01*
X119946190Y-126424523D01*
X120027142Y-126019761D01*
X120108095Y-125776904D01*
X120189047Y-125615000D01*
X120350952Y-125372142D01*
X120431904Y-125291190D01*
X183210476Y-130184047D02*
X183210476Y-128484047D01*
X182481904Y-130184047D02*
X182481904Y-129293571D01*
X182562857Y-129131666D01*
X182724761Y-129050714D01*
X182967619Y-129050714D01*
X183129523Y-129131666D01*
X183210476Y-129212619D01*
X181915238Y-129050714D02*
X181267619Y-129050714D01*
X181672380Y-128484047D02*
X181672380Y-129941190D01*
X181591428Y-130103095D01*
X181429523Y-130184047D01*
X181267619Y-130184047D01*
X180943809Y-129050714D02*
X180296190Y-129050714D01*
X180700952Y-128484047D02*
X180700952Y-129941190D01*
X180620000Y-130103095D01*
X180458095Y-130184047D01*
X180296190Y-130184047D01*
X179729523Y-129050714D02*
X179729523Y-130750714D01*
X179729523Y-129131666D02*
X179567619Y-129050714D01*
X179243809Y-129050714D01*
X179081904Y-129131666D01*
X179000952Y-129212619D01*
X178920000Y-129374523D01*
X178920000Y-129860238D01*
X179000952Y-130022142D01*
X179081904Y-130103095D01*
X179243809Y-130184047D01*
X179567619Y-130184047D01*
X179729523Y-130103095D01*
X178272380Y-130103095D02*
X178110476Y-130184047D01*
X177786666Y-130184047D01*
X177624761Y-130103095D01*
X177543809Y-129941190D01*
X177543809Y-129860238D01*
X177624761Y-129698333D01*
X177786666Y-129617380D01*
X178029523Y-129617380D01*
X178191428Y-129536428D01*
X178272380Y-129374523D01*
X178272380Y-129293571D01*
X178191428Y-129131666D01*
X178029523Y-129050714D01*
X177786666Y-129050714D01*
X177624761Y-129131666D01*
X176815238Y-130022142D02*
X176734285Y-130103095D01*
X176815238Y-130184047D01*
X176896190Y-130103095D01*
X176815238Y-130022142D01*
X176815238Y-130184047D01*
X176815238Y-129131666D02*
X176734285Y-129212619D01*
X176815238Y-129293571D01*
X176896190Y-129212619D01*
X176815238Y-129131666D01*
X176815238Y-129293571D01*
X174791428Y-128403095D02*
X176248571Y-130588809D01*
X173010476Y-128403095D02*
X174467619Y-130588809D01*
X171715238Y-130103095D02*
X171877142Y-130184047D01*
X172200952Y-130184047D01*
X172362857Y-130103095D01*
X172443809Y-130022142D01*
X172524761Y-129860238D01*
X172524761Y-129374523D01*
X172443809Y-129212619D01*
X172362857Y-129131666D01*
X172200952Y-129050714D01*
X171877142Y-129050714D01*
X171715238Y-129131666D01*
X170986666Y-130184047D02*
X170986666Y-129050714D01*
X170986666Y-129374523D02*
X170905714Y-129212619D01*
X170824761Y-129131666D01*
X170662857Y-129050714D01*
X170500952Y-129050714D01*
X169286666Y-130103095D02*
X169448571Y-130184047D01*
X169772380Y-130184047D01*
X169934285Y-130103095D01*
X170015238Y-129941190D01*
X170015238Y-129293571D01*
X169934285Y-129131666D01*
X169772380Y-129050714D01*
X169448571Y-129050714D01*
X169286666Y-129131666D01*
X169205714Y-129293571D01*
X169205714Y-129455476D01*
X170015238Y-129617380D01*
X167748571Y-130184047D02*
X167748571Y-129293571D01*
X167829523Y-129131666D01*
X167991428Y-129050714D01*
X168315238Y-129050714D01*
X168477142Y-129131666D01*
X167748571Y-130103095D02*
X167910476Y-130184047D01*
X168315238Y-130184047D01*
X168477142Y-130103095D01*
X168558095Y-129941190D01*
X168558095Y-129779285D01*
X168477142Y-129617380D01*
X168315238Y-129536428D01*
X167910476Y-129536428D01*
X167748571Y-129455476D01*
X167181904Y-129050714D02*
X166534285Y-129050714D01*
X166939047Y-128484047D02*
X166939047Y-129941190D01*
X166858095Y-130103095D01*
X166696190Y-130184047D01*
X166534285Y-130184047D01*
X165967619Y-130184047D02*
X165967619Y-129050714D01*
X165967619Y-128484047D02*
X166048571Y-128565000D01*
X165967619Y-128645952D01*
X165886666Y-128565000D01*
X165967619Y-128484047D01*
X165967619Y-128645952D01*
X165320000Y-129050714D02*
X164915238Y-130184047D01*
X164510476Y-129050714D01*
X163215238Y-130103095D02*
X163377142Y-130184047D01*
X163700952Y-130184047D01*
X163862857Y-130103095D01*
X163943809Y-129941190D01*
X163943809Y-129293571D01*
X163862857Y-129131666D01*
X163700952Y-129050714D01*
X163377142Y-129050714D01*
X163215238Y-129131666D01*
X163134285Y-129293571D01*
X163134285Y-129455476D01*
X163943809Y-129617380D01*
X161677142Y-130103095D02*
X161839047Y-130184047D01*
X162162857Y-130184047D01*
X162324761Y-130103095D01*
X162405714Y-130022142D01*
X162486666Y-129860238D01*
X162486666Y-129374523D01*
X162405714Y-129212619D01*
X162324761Y-129131666D01*
X162162857Y-129050714D01*
X161839047Y-129050714D01*
X161677142Y-129131666D01*
X160705714Y-130184047D02*
X160867619Y-130103095D01*
X160948571Y-130022142D01*
X161029523Y-129860238D01*
X161029523Y-129374523D01*
X160948571Y-129212619D01*
X160867619Y-129131666D01*
X160705714Y-129050714D01*
X160462857Y-129050714D01*
X160300952Y-129131666D01*
X160219999Y-129212619D01*
X160139047Y-129374523D01*
X160139047Y-129860238D01*
X160219999Y-130022142D01*
X160300952Y-130103095D01*
X160462857Y-130184047D01*
X160705714Y-130184047D01*
X159410476Y-130184047D02*
X159410476Y-129050714D01*
X159410476Y-129212619D02*
X159329523Y-129131666D01*
X159167619Y-129050714D01*
X158924761Y-129050714D01*
X158762857Y-129131666D01*
X158681904Y-129293571D01*
X158681904Y-130184047D01*
X158681904Y-129293571D02*
X158600952Y-129131666D01*
X158439047Y-129050714D01*
X158196190Y-129050714D01*
X158034285Y-129131666D01*
X157953333Y-129293571D01*
X157953333Y-130184047D01*
X157143809Y-130184047D02*
X157143809Y-129050714D01*
X157143809Y-129212619D02*
X157062857Y-129131666D01*
X156900952Y-129050714D01*
X156658095Y-129050714D01*
X156496190Y-129131666D01*
X156415238Y-129293571D01*
X156415238Y-130184047D01*
X156415238Y-129293571D02*
X156334285Y-129131666D01*
X156172380Y-129050714D01*
X155929523Y-129050714D01*
X155767619Y-129131666D01*
X155686666Y-129293571D01*
X155686666Y-130184047D01*
X154634285Y-130184047D02*
X154796190Y-130103095D01*
X154877142Y-130022142D01*
X154958095Y-129860238D01*
X154958095Y-129374523D01*
X154877142Y-129212619D01*
X154796190Y-129131666D01*
X154634285Y-129050714D01*
X154391428Y-129050714D01*
X154229523Y-129131666D01*
X154148571Y-129212619D01*
X154067619Y-129374523D01*
X154067619Y-129860238D01*
X154148571Y-130022142D01*
X154229523Y-130103095D01*
X154391428Y-130184047D01*
X154634285Y-130184047D01*
X153339047Y-129050714D02*
X153339047Y-130184047D01*
X153339047Y-129212619D02*
X153258095Y-129131666D01*
X153096190Y-129050714D01*
X152853333Y-129050714D01*
X152691428Y-129131666D01*
X152610476Y-129293571D01*
X152610476Y-130184047D01*
X151881904Y-130103095D02*
X151720000Y-130184047D01*
X151396190Y-130184047D01*
X151234285Y-130103095D01*
X151153333Y-129941190D01*
X151153333Y-129860238D01*
X151234285Y-129698333D01*
X151396190Y-129617380D01*
X151639047Y-129617380D01*
X151800952Y-129536428D01*
X151881904Y-129374523D01*
X151881904Y-129293571D01*
X151800952Y-129131666D01*
X151639047Y-129050714D01*
X151396190Y-129050714D01*
X151234285Y-129131666D01*
X150424761Y-130022142D02*
X150343809Y-130103095D01*
X150424761Y-130184047D01*
X150505714Y-130103095D01*
X150424761Y-130022142D01*
X150424761Y-130184047D01*
X149372380Y-130184047D02*
X149534285Y-130103095D01*
X149615238Y-130022142D01*
X149696190Y-129860238D01*
X149696190Y-129374523D01*
X149615238Y-129212619D01*
X149534285Y-129131666D01*
X149372380Y-129050714D01*
X149129523Y-129050714D01*
X148967619Y-129131666D01*
X148886666Y-129212619D01*
X148805714Y-129374523D01*
X148805714Y-129860238D01*
X148886666Y-130022142D01*
X148967619Y-130103095D01*
X149129523Y-130184047D01*
X149372380Y-130184047D01*
X148077142Y-130184047D02*
X148077142Y-129050714D01*
X148077142Y-129374523D02*
X147996190Y-129212619D01*
X147915238Y-129131666D01*
X147753333Y-129050714D01*
X147591428Y-129050714D01*
X146296190Y-129050714D02*
X146296190Y-130426904D01*
X146377142Y-130588809D01*
X146458095Y-130669761D01*
X146620000Y-130750714D01*
X146862857Y-130750714D01*
X147024761Y-130669761D01*
X146296190Y-130103095D02*
X146458095Y-130184047D01*
X146781904Y-130184047D01*
X146943809Y-130103095D01*
X147024761Y-130022142D01*
X147105714Y-129860238D01*
X147105714Y-129374523D01*
X147024761Y-129212619D01*
X146943809Y-129131666D01*
X146781904Y-129050714D01*
X146458095Y-129050714D01*
X146296190Y-129131666D01*
X144272380Y-128403095D02*
X145729523Y-130588809D01*
X143462857Y-130184047D02*
X143624761Y-130103095D01*
X143705714Y-129941190D01*
X143705714Y-128484047D01*
X142815238Y-130184047D02*
X142815238Y-129050714D01*
X142815238Y-128484047D02*
X142896190Y-128565000D01*
X142815238Y-128645952D01*
X142734285Y-128565000D01*
X142815238Y-128484047D01*
X142815238Y-128645952D01*
X141277142Y-130103095D02*
X141439047Y-130184047D01*
X141762857Y-130184047D01*
X141924761Y-130103095D01*
X142005714Y-130022142D01*
X142086666Y-129860238D01*
X142086666Y-129374523D01*
X142005714Y-129212619D01*
X141924761Y-129131666D01*
X141762857Y-129050714D01*
X141439047Y-129050714D01*
X141277142Y-129131666D01*
X139900952Y-130103095D02*
X140062857Y-130184047D01*
X140386666Y-130184047D01*
X140548571Y-130103095D01*
X140629523Y-129941190D01*
X140629523Y-129293571D01*
X140548571Y-129131666D01*
X140386666Y-129050714D01*
X140062857Y-129050714D01*
X139900952Y-129131666D01*
X139820000Y-129293571D01*
X139820000Y-129455476D01*
X140629523Y-129617380D01*
X139091428Y-129050714D02*
X139091428Y-130184047D01*
X139091428Y-129212619D02*
X139010476Y-129131666D01*
X138848571Y-129050714D01*
X138605714Y-129050714D01*
X138443809Y-129131666D01*
X138362857Y-129293571D01*
X138362857Y-130184047D01*
X137634285Y-130103095D02*
X137472380Y-130184047D01*
X137148571Y-130184047D01*
X136986666Y-130103095D01*
X136905714Y-129941190D01*
X136905714Y-129860238D01*
X136986666Y-129698333D01*
X137148571Y-129617380D01*
X137391428Y-129617380D01*
X137553333Y-129536428D01*
X137634285Y-129374523D01*
X137634285Y-129293571D01*
X137553333Y-129131666D01*
X137391428Y-129050714D01*
X137148571Y-129050714D01*
X136986666Y-129131666D01*
X135529523Y-130103095D02*
X135691428Y-130184047D01*
X136015238Y-130184047D01*
X136177142Y-130103095D01*
X136258095Y-129941190D01*
X136258095Y-129293571D01*
X136177142Y-129131666D01*
X136015238Y-129050714D01*
X135691428Y-129050714D01*
X135529523Y-129131666D01*
X135448571Y-129293571D01*
X135448571Y-129455476D01*
X136258095Y-129617380D01*
X134800952Y-130103095D02*
X134639047Y-130184047D01*
X134315238Y-130184047D01*
X134153333Y-130103095D01*
X134072380Y-129941190D01*
X134072380Y-129860238D01*
X134153333Y-129698333D01*
X134315238Y-129617380D01*
X134558095Y-129617380D01*
X134719999Y-129536428D01*
X134800952Y-129374523D01*
X134800952Y-129293571D01*
X134719999Y-129131666D01*
X134558095Y-129050714D01*
X134315238Y-129050714D01*
X134153333Y-129131666D01*
X132129523Y-128403095D02*
X133586666Y-130588809D01*
X131562857Y-130184047D02*
X131562857Y-128484047D01*
X131562857Y-129131666D02*
X131400952Y-129050714D01*
X131077142Y-129050714D01*
X130915238Y-129131666D01*
X130834285Y-129212619D01*
X130753333Y-129374523D01*
X130753333Y-129860238D01*
X130834285Y-130022142D01*
X130915238Y-130103095D01*
X131077142Y-130184047D01*
X131400952Y-130184047D01*
X131562857Y-130103095D01*
X130186666Y-129050714D02*
X129781904Y-130184047D01*
X129377142Y-129050714D02*
X129781904Y-130184047D01*
X129943809Y-130588809D01*
X130024761Y-130669761D01*
X130186666Y-130750714D01*
X128729523Y-129536428D02*
X127434285Y-129536428D01*
X126624761Y-129050714D02*
X126624761Y-130184047D01*
X126624761Y-129212619D02*
X126543809Y-129131666D01*
X126381904Y-129050714D01*
X126139047Y-129050714D01*
X125977142Y-129131666D01*
X125896190Y-129293571D01*
X125896190Y-130184047D01*
X124358095Y-130103095D02*
X124519999Y-130184047D01*
X124843809Y-130184047D01*
X125005714Y-130103095D01*
X125086666Y-130022142D01*
X125167619Y-129860238D01*
X125167619Y-129374523D01*
X125086666Y-129212619D01*
X125005714Y-129131666D01*
X124843809Y-129050714D01*
X124519999Y-129050714D01*
X124358095Y-129131666D01*
X122415238Y-128403095D02*
X123872380Y-130588809D01*
X121119999Y-129050714D02*
X121119999Y-130184047D01*
X121524761Y-128403095D02*
X121929523Y-129617380D01*
X120877142Y-129617380D01*
X120229523Y-130022142D02*
X120148571Y-130103095D01*
X120229523Y-130184047D01*
X120310476Y-130103095D01*
X120229523Y-130022142D01*
X120229523Y-130184047D01*
X119096190Y-128484047D02*
X118934285Y-128484047D01*
X118772380Y-128565000D01*
X118691428Y-128645952D01*
X118610476Y-128807857D01*
X118529523Y-129131666D01*
X118529523Y-129536428D01*
X118610476Y-129860238D01*
X118691428Y-130022142D01*
X118772380Y-130103095D01*
X118934285Y-130184047D01*
X119096190Y-130184047D01*
X119258095Y-130103095D01*
X119339047Y-130022142D01*
X119419999Y-129860238D01*
X119500952Y-129536428D01*
X119500952Y-129131666D01*
X119419999Y-128807857D01*
X119339047Y-128645952D01*
X119258095Y-128565000D01*
X119096190Y-128484047D01*
X116586666Y-128403095D02*
X118043809Y-130588809D01*
X180862857Y-136084047D02*
X180862857Y-134384047D01*
X180862857Y-135193571D02*
X179891428Y-135193571D01*
X179891428Y-136084047D02*
X179891428Y-134384047D01*
X178353333Y-136084047D02*
X178353333Y-135193571D01*
X178434285Y-135031666D01*
X178596190Y-134950714D01*
X178920000Y-134950714D01*
X179081904Y-135031666D01*
X178353333Y-136003095D02*
X178515238Y-136084047D01*
X178920000Y-136084047D01*
X179081904Y-136003095D01*
X179162857Y-135841190D01*
X179162857Y-135679285D01*
X179081904Y-135517380D01*
X178920000Y-135436428D01*
X178515238Y-135436428D01*
X178353333Y-135355476D01*
X177543809Y-136084047D02*
X177543809Y-134950714D01*
X177543809Y-135274523D02*
X177462857Y-135112619D01*
X177381904Y-135031666D01*
X177220000Y-134950714D01*
X177058095Y-134950714D01*
X175762857Y-136084047D02*
X175762857Y-134384047D01*
X175762857Y-136003095D02*
X175924761Y-136084047D01*
X176248571Y-136084047D01*
X176410476Y-136003095D01*
X176491428Y-135922142D01*
X176572380Y-135760238D01*
X176572380Y-135274523D01*
X176491428Y-135112619D01*
X176410476Y-135031666D01*
X176248571Y-134950714D01*
X175924761Y-134950714D01*
X175762857Y-135031666D01*
X175115238Y-134950714D02*
X174791428Y-136084047D01*
X174467619Y-135274523D01*
X174143809Y-136084047D01*
X173820000Y-134950714D01*
X172443809Y-136084047D02*
X172443809Y-135193571D01*
X172524761Y-135031666D01*
X172686666Y-134950714D01*
X173010476Y-134950714D01*
X173172380Y-135031666D01*
X172443809Y-136003095D02*
X172605714Y-136084047D01*
X173010476Y-136084047D01*
X173172380Y-136003095D01*
X173253333Y-135841190D01*
X173253333Y-135679285D01*
X173172380Y-135517380D01*
X173010476Y-135436428D01*
X172605714Y-135436428D01*
X172443809Y-135355476D01*
X171634285Y-136084047D02*
X171634285Y-134950714D01*
X171634285Y-135274523D02*
X171553333Y-135112619D01*
X171472380Y-135031666D01*
X171310476Y-134950714D01*
X171148571Y-134950714D01*
X169934285Y-136003095D02*
X170096190Y-136084047D01*
X170420000Y-136084047D01*
X170581904Y-136003095D01*
X170662857Y-135841190D01*
X170662857Y-135193571D01*
X170581904Y-135031666D01*
X170420000Y-134950714D01*
X170096190Y-134950714D01*
X169934285Y-135031666D01*
X169853333Y-135193571D01*
X169853333Y-135355476D01*
X170662857Y-135517380D01*
X167100952Y-136084047D02*
X167100952Y-134384047D01*
X167100952Y-136003095D02*
X167262857Y-136084047D01*
X167586666Y-136084047D01*
X167748571Y-136003095D01*
X167829523Y-135922142D01*
X167910476Y-135760238D01*
X167910476Y-135274523D01*
X167829523Y-135112619D01*
X167748571Y-135031666D01*
X167586666Y-134950714D01*
X167262857Y-134950714D01*
X167100952Y-135031666D01*
X165643809Y-136003095D02*
X165805714Y-136084047D01*
X166129523Y-136084047D01*
X166291428Y-136003095D01*
X166372380Y-135841190D01*
X166372380Y-135193571D01*
X166291428Y-135031666D01*
X166129523Y-134950714D01*
X165805714Y-134950714D01*
X165643809Y-135031666D01*
X165562857Y-135193571D01*
X165562857Y-135355476D01*
X166372380Y-135517380D01*
X164915238Y-136003095D02*
X164753333Y-136084047D01*
X164429523Y-136084047D01*
X164267619Y-136003095D01*
X164186666Y-135841190D01*
X164186666Y-135760238D01*
X164267619Y-135598333D01*
X164429523Y-135517380D01*
X164672380Y-135517380D01*
X164834285Y-135436428D01*
X164915238Y-135274523D01*
X164915238Y-135193571D01*
X164834285Y-135031666D01*
X164672380Y-134950714D01*
X164429523Y-134950714D01*
X164267619Y-135031666D01*
X163458095Y-136084047D02*
X163458095Y-134950714D01*
X163458095Y-134384047D02*
X163539047Y-134465000D01*
X163458095Y-134545952D01*
X163377142Y-134465000D01*
X163458095Y-134384047D01*
X163458095Y-134545952D01*
X161920000Y-134950714D02*
X161920000Y-136326904D01*
X162000952Y-136488809D01*
X162081904Y-136569761D01*
X162243809Y-136650714D01*
X162486666Y-136650714D01*
X162648571Y-136569761D01*
X161920000Y-136003095D02*
X162081904Y-136084047D01*
X162405714Y-136084047D01*
X162567619Y-136003095D01*
X162648571Y-135922142D01*
X162729523Y-135760238D01*
X162729523Y-135274523D01*
X162648571Y-135112619D01*
X162567619Y-135031666D01*
X162405714Y-134950714D01*
X162081904Y-134950714D01*
X161920000Y-135031666D01*
X161110476Y-134950714D02*
X161110476Y-136084047D01*
X161110476Y-135112619D02*
X161029523Y-135031666D01*
X160867619Y-134950714D01*
X160624761Y-134950714D01*
X160462857Y-135031666D01*
X160381904Y-135193571D01*
X160381904Y-136084047D01*
X159572380Y-135922142D02*
X159491428Y-136003095D01*
X159572380Y-136084047D01*
X159653333Y-136003095D01*
X159572380Y-135922142D01*
X159572380Y-136084047D01*
X159572380Y-135031666D02*
X159491428Y-135112619D01*
X159572380Y-135193571D01*
X159653333Y-135112619D01*
X159572380Y-135031666D01*
X159572380Y-135193571D01*
X157710476Y-134384047D02*
X157143809Y-136084047D01*
X156577142Y-134384047D01*
X155281904Y-136084047D02*
X155281904Y-135193571D01*
X155362857Y-135031666D01*
X155524761Y-134950714D01*
X155848571Y-134950714D01*
X156010476Y-135031666D01*
X155281904Y-136003095D02*
X155443809Y-136084047D01*
X155848571Y-136084047D01*
X156010476Y-136003095D01*
X156091428Y-135841190D01*
X156091428Y-135679285D01*
X156010476Y-135517380D01*
X155848571Y-135436428D01*
X155443809Y-135436428D01*
X155281904Y-135355476D01*
X154229523Y-136084047D02*
X154391428Y-136003095D01*
X154472380Y-135841190D01*
X154472380Y-134384047D01*
X152934285Y-136003095D02*
X153096190Y-136084047D01*
X153420000Y-136084047D01*
X153581904Y-136003095D01*
X153662857Y-135841190D01*
X153662857Y-135193571D01*
X153581904Y-135031666D01*
X153420000Y-134950714D01*
X153096190Y-134950714D01*
X152934285Y-135031666D01*
X152853333Y-135193571D01*
X152853333Y-135355476D01*
X153662857Y-135517380D01*
X152124761Y-136084047D02*
X152124761Y-134950714D01*
X152124761Y-135274523D02*
X152043809Y-135112619D01*
X151962857Y-135031666D01*
X151800952Y-134950714D01*
X151639047Y-134950714D01*
X151072380Y-136084047D02*
X151072380Y-134950714D01*
X151072380Y-134384047D02*
X151153333Y-134465000D01*
X151072380Y-134545952D01*
X150991428Y-134465000D01*
X151072380Y-134384047D01*
X151072380Y-134545952D01*
X150020000Y-136084047D02*
X150181904Y-136003095D01*
X150262857Y-135922142D01*
X150343809Y-135760238D01*
X150343809Y-135274523D01*
X150262857Y-135112619D01*
X150181904Y-135031666D01*
X150020000Y-134950714D01*
X149777142Y-134950714D01*
X149615238Y-135031666D01*
X149534285Y-135112619D01*
X149453333Y-135274523D01*
X149453333Y-135760238D01*
X149534285Y-135922142D01*
X149615238Y-136003095D01*
X149777142Y-136084047D01*
X150020000Y-136084047D01*
X147429523Y-136084047D02*
X147429523Y-134384047D01*
X146458095Y-136084047D01*
X146458095Y-134384047D01*
X144920000Y-136084047D02*
X144920000Y-135193571D01*
X145000952Y-135031666D01*
X145162857Y-134950714D01*
X145486666Y-134950714D01*
X145648571Y-135031666D01*
X144920000Y-136003095D02*
X145081904Y-136084047D01*
X145486666Y-136084047D01*
X145648571Y-136003095D01*
X145729523Y-135841190D01*
X145729523Y-135679285D01*
X145648571Y-135517380D01*
X145486666Y-135436428D01*
X145081904Y-135436428D01*
X144920000Y-135355476D01*
X144110476Y-134950714D02*
X144110476Y-136650714D01*
X144110476Y-135031666D02*
X143948571Y-134950714D01*
X143624761Y-134950714D01*
X143462857Y-135031666D01*
X143381904Y-135112619D01*
X143300952Y-135274523D01*
X143300952Y-135760238D01*
X143381904Y-135922142D01*
X143462857Y-136003095D01*
X143624761Y-136084047D01*
X143948571Y-136084047D01*
X144110476Y-136003095D01*
X142572380Y-134950714D02*
X142572380Y-136650714D01*
X142572380Y-135031666D02*
X142410476Y-134950714D01*
X142086666Y-134950714D01*
X141924761Y-135031666D01*
X141843809Y-135112619D01*
X141762857Y-135274523D01*
X141762857Y-135760238D01*
X141843809Y-135922142D01*
X141924761Y-136003095D01*
X142086666Y-136084047D01*
X142410476Y-136084047D01*
X142572380Y-136003095D01*
X141034285Y-136084047D02*
X141034285Y-134950714D01*
X141034285Y-134384047D02*
X141115238Y-134465000D01*
X141034285Y-134545952D01*
X140953333Y-134465000D01*
X141034285Y-134384047D01*
X141034285Y-134545952D01*
X138443809Y-136731666D02*
X138524761Y-136650714D01*
X138686666Y-136407857D01*
X138767619Y-136245952D01*
X138848571Y-136003095D01*
X138929523Y-135598333D01*
X138929523Y-135274523D01*
X138848571Y-134869761D01*
X138767619Y-134626904D01*
X138686666Y-134465000D01*
X138524761Y-134222142D01*
X138443809Y-134141190D01*
X136824761Y-135922142D02*
X136905714Y-136003095D01*
X137148571Y-136084047D01*
X137310476Y-136084047D01*
X137553333Y-136003095D01*
X137715238Y-135841190D01*
X137796190Y-135679285D01*
X137877142Y-135355476D01*
X137877142Y-135112619D01*
X137796190Y-134788809D01*
X137715238Y-134626904D01*
X137553333Y-134465000D01*
X137310476Y-134384047D01*
X137148571Y-134384047D01*
X136905714Y-134465000D01*
X136824761Y-134545952D01*
X136096190Y-135193571D02*
X135529523Y-135193571D01*
X135286666Y-136084047D02*
X136096190Y-136084047D01*
X136096190Y-134384047D01*
X135286666Y-134384047D01*
X133586666Y-136084047D02*
X134153333Y-135274523D01*
X134558095Y-136084047D02*
X134558095Y-134384047D01*
X133910476Y-134384047D01*
X133748571Y-134465000D01*
X133667619Y-134545952D01*
X133586666Y-134707857D01*
X133586666Y-134950714D01*
X133667619Y-135112619D01*
X133748571Y-135193571D01*
X133910476Y-135274523D01*
X134558095Y-135274523D01*
X132858095Y-136084047D02*
X132858095Y-134384047D01*
X131886666Y-136084047D01*
X131886666Y-134384047D01*
X129458095Y-134384047D02*
X129134285Y-134384047D01*
X128972380Y-134465000D01*
X128810476Y-134626904D01*
X128729523Y-134950714D01*
X128729523Y-135517380D01*
X128810476Y-135841190D01*
X128972380Y-136003095D01*
X129134285Y-136084047D01*
X129458095Y-136084047D01*
X129619999Y-136003095D01*
X129781904Y-135841190D01*
X129862857Y-135517380D01*
X129862857Y-134950714D01*
X129781904Y-134626904D01*
X129619999Y-134465000D01*
X129458095Y-134384047D01*
X128000952Y-136084047D02*
X128000952Y-134384047D01*
X128000952Y-135193571D02*
X127029523Y-135193571D01*
X127029523Y-136084047D02*
X127029523Y-134384047D01*
X125410476Y-136084047D02*
X126219999Y-136084047D01*
X126219999Y-134384047D01*
X122658095Y-136084047D02*
X123629523Y-136084047D01*
X123143809Y-136084047D02*
X123143809Y-134384047D01*
X123305714Y-134626904D01*
X123467619Y-134788809D01*
X123629523Y-134869761D01*
X121929523Y-135922142D02*
X121848571Y-136003095D01*
X121929523Y-136084047D01*
X122010476Y-136003095D01*
X121929523Y-135922142D01*
X121929523Y-136084047D01*
X121200952Y-134545952D02*
X121119999Y-134465000D01*
X120958095Y-134384047D01*
X120553333Y-134384047D01*
X120391428Y-134465000D01*
X120310476Y-134545952D01*
X120229523Y-134707857D01*
X120229523Y-134869761D01*
X120310476Y-135112619D01*
X121281904Y-136084047D01*
X120229523Y-136084047D01*
X119662857Y-136731666D02*
X119581904Y-136650714D01*
X119419999Y-136407857D01*
X119339047Y-136245952D01*
X119258095Y-136003095D01*
X119177142Y-135598333D01*
X119177142Y-135274523D01*
X119258095Y-134869761D01*
X119339047Y-134626904D01*
X119419999Y-134465000D01*
X119581904Y-134222142D01*
X119662857Y-134141190D01*
X165360476Y-139034047D02*
X165360476Y-137334047D01*
X164631904Y-139034047D02*
X164631904Y-138143571D01*
X164712857Y-137981666D01*
X164874761Y-137900714D01*
X165117619Y-137900714D01*
X165279523Y-137981666D01*
X165360476Y-138062619D01*
X164065238Y-137900714D02*
X163417619Y-137900714D01*
X163822380Y-137334047D02*
X163822380Y-138791190D01*
X163741428Y-138953095D01*
X163579523Y-139034047D01*
X163417619Y-139034047D01*
X163093809Y-137900714D02*
X162446190Y-137900714D01*
X162850952Y-137334047D02*
X162850952Y-138791190D01*
X162770000Y-138953095D01*
X162608095Y-139034047D01*
X162446190Y-139034047D01*
X161879523Y-137900714D02*
X161879523Y-139600714D01*
X161879523Y-137981666D02*
X161717619Y-137900714D01*
X161393809Y-137900714D01*
X161231904Y-137981666D01*
X161150952Y-138062619D01*
X161070000Y-138224523D01*
X161070000Y-138710238D01*
X161150952Y-138872142D01*
X161231904Y-138953095D01*
X161393809Y-139034047D01*
X161717619Y-139034047D01*
X161879523Y-138953095D01*
X160341428Y-138872142D02*
X160260476Y-138953095D01*
X160341428Y-139034047D01*
X160422380Y-138953095D01*
X160341428Y-138872142D01*
X160341428Y-139034047D01*
X160341428Y-137981666D02*
X160260476Y-138062619D01*
X160341428Y-138143571D01*
X160422380Y-138062619D01*
X160341428Y-137981666D01*
X160341428Y-138143571D01*
X158317619Y-137253095D02*
X159774761Y-139438809D01*
X156536666Y-137253095D02*
X157993809Y-139438809D01*
X155727142Y-139034047D02*
X155889047Y-138953095D01*
X155970000Y-138872142D01*
X156050952Y-138710238D01*
X156050952Y-138224523D01*
X155970000Y-138062619D01*
X155889047Y-137981666D01*
X155727142Y-137900714D01*
X155484285Y-137900714D01*
X155322380Y-137981666D01*
X155241428Y-138062619D01*
X155160476Y-138224523D01*
X155160476Y-138710238D01*
X155241428Y-138872142D01*
X155322380Y-138953095D01*
X155484285Y-139034047D01*
X155727142Y-139034047D01*
X154431904Y-139034047D02*
X154431904Y-137334047D01*
X153703333Y-139034047D02*
X153703333Y-138143571D01*
X153784285Y-137981666D01*
X153946190Y-137900714D01*
X154189047Y-137900714D01*
X154350952Y-137981666D01*
X154431904Y-138062619D01*
X153055714Y-137900714D02*
X152731904Y-139034047D01*
X152408095Y-138224523D01*
X152084285Y-139034047D01*
X151760476Y-137900714D01*
X151112857Y-139034047D02*
X151112857Y-137900714D01*
X151112857Y-138224523D02*
X151031904Y-138062619D01*
X150950952Y-137981666D01*
X150789047Y-137900714D01*
X150627142Y-137900714D01*
X150060476Y-138872142D02*
X149979523Y-138953095D01*
X150060476Y-139034047D01*
X150141428Y-138953095D01*
X150060476Y-138872142D01*
X150060476Y-139034047D01*
X149008095Y-139034047D02*
X149170000Y-138953095D01*
X149250952Y-138872142D01*
X149331904Y-138710238D01*
X149331904Y-138224523D01*
X149250952Y-138062619D01*
X149170000Y-137981666D01*
X149008095Y-137900714D01*
X148765238Y-137900714D01*
X148603333Y-137981666D01*
X148522380Y-138062619D01*
X148441428Y-138224523D01*
X148441428Y-138710238D01*
X148522380Y-138872142D01*
X148603333Y-138953095D01*
X148765238Y-139034047D01*
X149008095Y-139034047D01*
X147712857Y-139034047D02*
X147712857Y-137900714D01*
X147712857Y-138224523D02*
X147631904Y-138062619D01*
X147550952Y-137981666D01*
X147389047Y-137900714D01*
X147227142Y-137900714D01*
X145931904Y-137900714D02*
X145931904Y-139276904D01*
X146012857Y-139438809D01*
X146093809Y-139519761D01*
X146255714Y-139600714D01*
X146498571Y-139600714D01*
X146660476Y-139519761D01*
X145931904Y-138953095D02*
X146093809Y-139034047D01*
X146417619Y-139034047D01*
X146579523Y-138953095D01*
X146660476Y-138872142D01*
X146741428Y-138710238D01*
X146741428Y-138224523D01*
X146660476Y-138062619D01*
X146579523Y-137981666D01*
X146417619Y-137900714D01*
X146093809Y-137900714D01*
X145931904Y-137981666D01*
X143908095Y-137253095D02*
X145365238Y-139438809D01*
X142612857Y-138953095D02*
X142774761Y-139034047D01*
X143098571Y-139034047D01*
X143260476Y-138953095D01*
X143341428Y-138872142D01*
X143422380Y-138710238D01*
X143422380Y-138224523D01*
X143341428Y-138062619D01*
X143260476Y-137981666D01*
X143098571Y-137900714D01*
X142774761Y-137900714D01*
X142612857Y-137981666D01*
X141236666Y-138953095D02*
X141398571Y-139034047D01*
X141722380Y-139034047D01*
X141884285Y-138953095D01*
X141965238Y-138791190D01*
X141965238Y-138143571D01*
X141884285Y-137981666D01*
X141722380Y-137900714D01*
X141398571Y-137900714D01*
X141236666Y-137981666D01*
X141155714Y-138143571D01*
X141155714Y-138305476D01*
X141965238Y-138467380D01*
X140427142Y-139034047D02*
X140427142Y-137900714D01*
X140427142Y-138224523D02*
X140346190Y-138062619D01*
X140265238Y-137981666D01*
X140103333Y-137900714D01*
X139941428Y-137900714D01*
X139374761Y-137900714D02*
X139374761Y-139034047D01*
X139374761Y-138062619D02*
X139293809Y-137981666D01*
X139131904Y-137900714D01*
X138889047Y-137900714D01*
X138727142Y-137981666D01*
X138646190Y-138143571D01*
X138646190Y-139034047D01*
X137593809Y-139034047D02*
X137755714Y-138953095D01*
X137836666Y-138872142D01*
X137917619Y-138710238D01*
X137917619Y-138224523D01*
X137836666Y-138062619D01*
X137755714Y-137981666D01*
X137593809Y-137900714D01*
X137350952Y-137900714D01*
X137189047Y-137981666D01*
X137108095Y-138062619D01*
X137027142Y-138224523D01*
X137027142Y-138710238D01*
X137108095Y-138872142D01*
X137189047Y-138953095D01*
X137350952Y-139034047D01*
X137593809Y-139034047D01*
X136298571Y-139034047D02*
X136298571Y-137334047D01*
X135570000Y-139034047D02*
X135570000Y-138143571D01*
X135650952Y-137981666D01*
X135812857Y-137900714D01*
X136055714Y-137900714D01*
X136217619Y-137981666D01*
X136298571Y-138062619D01*
X134517619Y-139034047D02*
X134679523Y-138953095D01*
X134760476Y-138791190D01*
X134760476Y-137334047D01*
%LPC*%
D11*
X180120000Y-146070000D03*
D12*
X177580000Y-146070000D03*
D11*
X68650000Y-105950000D03*
X71190000Y-105950000D03*
X73730000Y-105950000D03*
X76270000Y-105950000D03*
X78810000Y-105950000D03*
D12*
X81350000Y-105950000D03*
D13*
X230930000Y-51452500D03*
X237930000Y-51452500D03*
D14*
X231930000Y-54152500D03*
X236930000Y-54152500D03*
D11*
X110440000Y-61580000D03*
X107900000Y-61580000D03*
X110440000Y-59040000D03*
X107900000Y-59040000D03*
X110440000Y-56500000D03*
D12*
X107900000Y-56500000D03*
D11*
X241500000Y-56500000D03*
D12*
X241500000Y-59040000D03*
D13*
X161370000Y-148547500D03*
X154370000Y-148547500D03*
D14*
X160370000Y-145847500D03*
X155370000Y-145847500D03*
D15*
G36*
X173480765Y-141084213D02*
G01*
X173565704Y-141096813D01*
X173648999Y-141117677D01*
X173729848Y-141146605D01*
X173807472Y-141183319D01*
X173881124Y-141227464D01*
X173950094Y-141278616D01*
X174013718Y-141336282D01*
X174071384Y-141399906D01*
X174122536Y-141468876D01*
X174166681Y-141542528D01*
X174203395Y-141620152D01*
X174232323Y-141701001D01*
X174253187Y-141784296D01*
X174265787Y-141869235D01*
X174270000Y-141955000D01*
X174270000Y-143705000D01*
X174265787Y-143790765D01*
X174253187Y-143875704D01*
X174232323Y-143958999D01*
X174203395Y-144039848D01*
X174166681Y-144117472D01*
X174122536Y-144191124D01*
X174071384Y-144260094D01*
X174013718Y-144323718D01*
X173950094Y-144381384D01*
X173881124Y-144432536D01*
X173807472Y-144476681D01*
X173729848Y-144513395D01*
X173648999Y-144542323D01*
X173565704Y-144563187D01*
X173480765Y-144575787D01*
X173395000Y-144580000D01*
X171645000Y-144580000D01*
X171559235Y-144575787D01*
X171474296Y-144563187D01*
X171391001Y-144542323D01*
X171310152Y-144513395D01*
X171232528Y-144476681D01*
X171158876Y-144432536D01*
X171089906Y-144381384D01*
X171026282Y-144323718D01*
X170968616Y-144260094D01*
X170917464Y-144191124D01*
X170873319Y-144117472D01*
X170836605Y-144039848D01*
X170807677Y-143958999D01*
X170786813Y-143875704D01*
X170774213Y-143790765D01*
X170770000Y-143705000D01*
X170770000Y-141955000D01*
X170774213Y-141869235D01*
X170786813Y-141784296D01*
X170807677Y-141701001D01*
X170836605Y-141620152D01*
X170873319Y-141542528D01*
X170917464Y-141468876D01*
X170968616Y-141399906D01*
X171026282Y-141336282D01*
X171089906Y-141278616D01*
X171158876Y-141227464D01*
X171232528Y-141183319D01*
X171310152Y-141146605D01*
X171391001Y-141117677D01*
X171474296Y-141096813D01*
X171559235Y-141084213D01*
X171645000Y-141080000D01*
X173395000Y-141080000D01*
X173480765Y-141084213D01*
X173480765Y-141084213D01*
G37*
D16*
X172520000Y-142830000D03*
D15*
G36*
X168893513Y-144333611D02*
G01*
X168966318Y-144344411D01*
X169037714Y-144362295D01*
X169107013Y-144387090D01*
X169173548Y-144418559D01*
X169236678Y-144456398D01*
X169295795Y-144500242D01*
X169350330Y-144549670D01*
X169399758Y-144604205D01*
X169443602Y-144663322D01*
X169481441Y-144726452D01*
X169512910Y-144792987D01*
X169537705Y-144862286D01*
X169555589Y-144933682D01*
X169566389Y-145006487D01*
X169570000Y-145080000D01*
X169570000Y-146580000D01*
X169566389Y-146653513D01*
X169555589Y-146726318D01*
X169537705Y-146797714D01*
X169512910Y-146867013D01*
X169481441Y-146933548D01*
X169443602Y-146996678D01*
X169399758Y-147055795D01*
X169350330Y-147110330D01*
X169295795Y-147159758D01*
X169236678Y-147203602D01*
X169173548Y-147241441D01*
X169107013Y-147272910D01*
X169037714Y-147297705D01*
X168966318Y-147315589D01*
X168893513Y-147326389D01*
X168820000Y-147330000D01*
X166820000Y-147330000D01*
X166746487Y-147326389D01*
X166673682Y-147315589D01*
X166602286Y-147297705D01*
X166532987Y-147272910D01*
X166466452Y-147241441D01*
X166403322Y-147203602D01*
X166344205Y-147159758D01*
X166289670Y-147110330D01*
X166240242Y-147055795D01*
X166196398Y-146996678D01*
X166158559Y-146933548D01*
X166127090Y-146867013D01*
X166102295Y-146797714D01*
X166084411Y-146726318D01*
X166073611Y-146653513D01*
X166070000Y-146580000D01*
X166070000Y-145080000D01*
X166073611Y-145006487D01*
X166084411Y-144933682D01*
X166102295Y-144862286D01*
X166127090Y-144792987D01*
X166158559Y-144726452D01*
X166196398Y-144663322D01*
X166240242Y-144604205D01*
X166289670Y-144549670D01*
X166344205Y-144500242D01*
X166403322Y-144456398D01*
X166466452Y-144418559D01*
X166532987Y-144387090D01*
X166602286Y-144362295D01*
X166673682Y-144344411D01*
X166746487Y-144333611D01*
X166820000Y-144330000D01*
X168820000Y-144330000D01*
X168893513Y-144333611D01*
X168893513Y-144333611D01*
G37*
D17*
X167820000Y-145830000D03*
D18*
X167820000Y-139830000D03*
D19*
X227440000Y-63030000D03*
X222560000Y-63030000D03*
X172560000Y-64010000D03*
X177440000Y-64010000D03*
D11*
X225180000Y-54180000D03*
D12*
X227720000Y-54180000D03*
D11*
X205960000Y-104690000D03*
X208500000Y-104690000D03*
X211040000Y-104690000D03*
X213580000Y-104690000D03*
X216120000Y-104690000D03*
X218660000Y-104690000D03*
X221200000Y-104690000D03*
X223740000Y-104690000D03*
X226280000Y-104690000D03*
X228820000Y-104690000D03*
X231360000Y-104690000D03*
X233900000Y-104690000D03*
X236440000Y-104690000D03*
X238980000Y-104690000D03*
X241520000Y-104690000D03*
D12*
X244060000Y-104690000D03*
D11*
X203410000Y-145320000D03*
X203410000Y-142780000D03*
X203410000Y-140240000D03*
X203410000Y-137700000D03*
X203410000Y-135160000D03*
X203410000Y-132620000D03*
X203410000Y-130080000D03*
X203410000Y-127540000D03*
X203410000Y-125000000D03*
X203410000Y-122460000D03*
X203410000Y-119920000D03*
X203410000Y-117380000D03*
X203410000Y-114840000D03*
X203410000Y-112300000D03*
X203410000Y-109760000D03*
D12*
X203410000Y-107220000D03*
D11*
X213580000Y-147090000D03*
X211040000Y-147090000D03*
D12*
X208500000Y-147090000D03*
D11*
X246600000Y-107220000D03*
X246600000Y-109760000D03*
X246600000Y-112300000D03*
X246600000Y-114840000D03*
X246600000Y-117380000D03*
X246600000Y-119920000D03*
X246600000Y-122460000D03*
X246600000Y-125000000D03*
X246600000Y-127540000D03*
X246600000Y-130080000D03*
X246600000Y-132620000D03*
X246600000Y-135160000D03*
X246600000Y-137700000D03*
X246600000Y-140240000D03*
X246600000Y-142780000D03*
D12*
X246600000Y-145320000D03*
D11*
X238510000Y-109500000D03*
X235970000Y-109500000D03*
D12*
X233430000Y-109500000D03*
D11*
X238780000Y-115460000D03*
X236240000Y-115460000D03*
X233700000Y-115460000D03*
X231160000Y-115460000D03*
D12*
X228620000Y-115460000D03*
D11*
X227440000Y-140540000D03*
D12*
X227440000Y-138000000D03*
D11*
X55950000Y-144060000D03*
X55950000Y-141520000D03*
X55950000Y-138980000D03*
X55950000Y-136440000D03*
X55950000Y-133900000D03*
X55950000Y-131360000D03*
X55950000Y-128820000D03*
X55950000Y-126280000D03*
X55950000Y-123740000D03*
X55950000Y-121200000D03*
X55950000Y-118660000D03*
X55950000Y-116120000D03*
X55950000Y-113580000D03*
X55950000Y-111040000D03*
X55950000Y-108500000D03*
D12*
X55950000Y-105960000D03*
D11*
X94050000Y-105960000D03*
X94050000Y-108500000D03*
X94050000Y-111040000D03*
X94050000Y-113580000D03*
X94050000Y-116120000D03*
X94050000Y-118660000D03*
X94050000Y-121200000D03*
X94050000Y-123740000D03*
X94050000Y-126280000D03*
X94050000Y-128820000D03*
X94050000Y-131360000D03*
X94050000Y-133900000D03*
X94050000Y-136440000D03*
X94050000Y-138980000D03*
X94050000Y-141520000D03*
D12*
X94050000Y-144060000D03*
D11*
X72390000Y-134620000D03*
X69850000Y-134620000D03*
X67310000Y-134620000D03*
X64770000Y-134620000D03*
D12*
X62230000Y-134620000D03*
D11*
X69850000Y-139700000D03*
X67310000Y-139700000D03*
D12*
X64770000Y-139700000D03*
D11*
X86500000Y-139540000D03*
D12*
X86500000Y-137000000D03*
D11*
X212300000Y-90250000D03*
X214840000Y-90250000D03*
X217380000Y-90250000D03*
X219920000Y-90250000D03*
X222460000Y-90250000D03*
X225000000Y-90250000D03*
X227540000Y-90250000D03*
X230080000Y-90250000D03*
X232620000Y-90250000D03*
X235160000Y-90250000D03*
D12*
X237700000Y-90250000D03*
D11*
X209760000Y-85160000D03*
X209760000Y-82620000D03*
X209760000Y-80080000D03*
X209760000Y-77540000D03*
X209760000Y-75000000D03*
X209760000Y-72460000D03*
X209760000Y-69920000D03*
D12*
X209760000Y-67380000D03*
D11*
X240240000Y-85160000D03*
X240240000Y-82620000D03*
X240240000Y-80080000D03*
X240240000Y-77540000D03*
X240240000Y-75000000D03*
X240240000Y-72460000D03*
X240240000Y-69920000D03*
D12*
X240240000Y-67380000D03*
D11*
X211580000Y-60580000D03*
X209040000Y-60580000D03*
X211580000Y-58040000D03*
X209040000Y-58040000D03*
X211580000Y-55500000D03*
D12*
X209040000Y-55500000D03*
D11*
X190000000Y-66110000D03*
X190000000Y-68650000D03*
X190000000Y-71190000D03*
X190000000Y-73730000D03*
X190000000Y-76270000D03*
X190000000Y-78810000D03*
X190000000Y-81350000D03*
D12*
X190000000Y-83890000D03*
D11*
X160000000Y-89250000D03*
X160000000Y-86710000D03*
X160000000Y-84170000D03*
D12*
X160000000Y-81630000D03*
D11*
X182620000Y-90000000D03*
X180080000Y-90000000D03*
X177540000Y-90000000D03*
X175000000Y-90000000D03*
X172460000Y-90000000D03*
X169920000Y-90000000D03*
D12*
X167380000Y-90000000D03*
D11*
X161570000Y-60580000D03*
X159030000Y-60580000D03*
X161570000Y-58040000D03*
X159030000Y-58040000D03*
X161570000Y-55500000D03*
D12*
X159030000Y-55500000D03*
D11*
X160000000Y-76550000D03*
X160000000Y-74010000D03*
X160000000Y-71470000D03*
X160000000Y-68930000D03*
X160000000Y-66390000D03*
D12*
X160000000Y-63850000D03*
D11*
X191500000Y-59030000D03*
D12*
X191500000Y-56490000D03*
D11*
X118630000Y-85000000D03*
X121170000Y-85000000D03*
X123710000Y-85000000D03*
X126250000Y-85000000D03*
X128790000Y-85000000D03*
D12*
X131330000Y-85000000D03*
D11*
X142875000Y-60325000D03*
D12*
X142875000Y-57785000D03*
D11*
X78820000Y-85000000D03*
X76280000Y-85000000D03*
X73740000Y-85000000D03*
D12*
X71200000Y-85000000D03*
D11*
X92750000Y-60220000D03*
D12*
X92750000Y-57680000D03*
D11*
X60440000Y-61580000D03*
X57900000Y-61580000D03*
X60440000Y-59040000D03*
X57900000Y-59040000D03*
X60440000Y-56500000D03*
D12*
X57900000Y-56500000D03*
M02*
