G04 #@! TF.GenerationSoftware,KiCad,Pcbnew,(5.1.4)-1*
G04 #@! TF.CreationDate,2019-10-03T10:29:34+02:00*
G04 #@! TF.ProjectId,regalodilara,72656761-6c6f-4646-996c-6172612e6b69,rev?*
G04 #@! TF.SameCoordinates,Original*
G04 #@! TF.FileFunction,Soldermask,Bot*
G04 #@! TF.FilePolarity,Negative*
%FSLAX46Y46*%
G04 Gerber Fmt 4.6, Leading zero omitted, Abs format (unit mm)*
G04 Created by KiCad (PCBNEW (5.1.4)-1) date 2019-10-03 10:29:34*
%MOMM*%
%LPD*%
G04 APERTURE LIST*
%ADD10O,1.700000X1.700000*%
%ADD11R,1.700000X1.700000*%
%ADD12O,1.200000X1.900000*%
%ADD13C,1.450000*%
%ADD14C,0.100000*%
%ADD15C,3.500000*%
%ADD16C,3.000000*%
%ADD17R,3.500000X3.500000*%
%ADD18C,1.500000*%
G04 APERTURE END LIST*
D10*
X180120000Y-146070000D03*
D11*
X177580000Y-146070000D03*
D10*
X68650000Y-105950000D03*
X71190000Y-105950000D03*
X73730000Y-105950000D03*
X76270000Y-105950000D03*
X78810000Y-105950000D03*
D11*
X81350000Y-105950000D03*
D12*
X230930000Y-51452500D03*
X237930000Y-51452500D03*
D13*
X231930000Y-54152500D03*
X236930000Y-54152500D03*
D10*
X110440000Y-61580000D03*
X107900000Y-61580000D03*
X110440000Y-59040000D03*
X107900000Y-59040000D03*
X110440000Y-56500000D03*
D11*
X107900000Y-56500000D03*
D10*
X241500000Y-56500000D03*
D11*
X241500000Y-59040000D03*
D12*
X161370000Y-148547500D03*
X154370000Y-148547500D03*
D13*
X160370000Y-145847500D03*
X155370000Y-145847500D03*
D14*
G36*
X173480765Y-141084213D02*
G01*
X173565704Y-141096813D01*
X173648999Y-141117677D01*
X173729848Y-141146605D01*
X173807472Y-141183319D01*
X173881124Y-141227464D01*
X173950094Y-141278616D01*
X174013718Y-141336282D01*
X174071384Y-141399906D01*
X174122536Y-141468876D01*
X174166681Y-141542528D01*
X174203395Y-141620152D01*
X174232323Y-141701001D01*
X174253187Y-141784296D01*
X174265787Y-141869235D01*
X174270000Y-141955000D01*
X174270000Y-143705000D01*
X174265787Y-143790765D01*
X174253187Y-143875704D01*
X174232323Y-143958999D01*
X174203395Y-144039848D01*
X174166681Y-144117472D01*
X174122536Y-144191124D01*
X174071384Y-144260094D01*
X174013718Y-144323718D01*
X173950094Y-144381384D01*
X173881124Y-144432536D01*
X173807472Y-144476681D01*
X173729848Y-144513395D01*
X173648999Y-144542323D01*
X173565704Y-144563187D01*
X173480765Y-144575787D01*
X173395000Y-144580000D01*
X171645000Y-144580000D01*
X171559235Y-144575787D01*
X171474296Y-144563187D01*
X171391001Y-144542323D01*
X171310152Y-144513395D01*
X171232528Y-144476681D01*
X171158876Y-144432536D01*
X171089906Y-144381384D01*
X171026282Y-144323718D01*
X170968616Y-144260094D01*
X170917464Y-144191124D01*
X170873319Y-144117472D01*
X170836605Y-144039848D01*
X170807677Y-143958999D01*
X170786813Y-143875704D01*
X170774213Y-143790765D01*
X170770000Y-143705000D01*
X170770000Y-141955000D01*
X170774213Y-141869235D01*
X170786813Y-141784296D01*
X170807677Y-141701001D01*
X170836605Y-141620152D01*
X170873319Y-141542528D01*
X170917464Y-141468876D01*
X170968616Y-141399906D01*
X171026282Y-141336282D01*
X171089906Y-141278616D01*
X171158876Y-141227464D01*
X171232528Y-141183319D01*
X171310152Y-141146605D01*
X171391001Y-141117677D01*
X171474296Y-141096813D01*
X171559235Y-141084213D01*
X171645000Y-141080000D01*
X173395000Y-141080000D01*
X173480765Y-141084213D01*
X173480765Y-141084213D01*
G37*
D15*
X172520000Y-142830000D03*
D14*
G36*
X168893513Y-144333611D02*
G01*
X168966318Y-144344411D01*
X169037714Y-144362295D01*
X169107013Y-144387090D01*
X169173548Y-144418559D01*
X169236678Y-144456398D01*
X169295795Y-144500242D01*
X169350330Y-144549670D01*
X169399758Y-144604205D01*
X169443602Y-144663322D01*
X169481441Y-144726452D01*
X169512910Y-144792987D01*
X169537705Y-144862286D01*
X169555589Y-144933682D01*
X169566389Y-145006487D01*
X169570000Y-145080000D01*
X169570000Y-146580000D01*
X169566389Y-146653513D01*
X169555589Y-146726318D01*
X169537705Y-146797714D01*
X169512910Y-146867013D01*
X169481441Y-146933548D01*
X169443602Y-146996678D01*
X169399758Y-147055795D01*
X169350330Y-147110330D01*
X169295795Y-147159758D01*
X169236678Y-147203602D01*
X169173548Y-147241441D01*
X169107013Y-147272910D01*
X169037714Y-147297705D01*
X168966318Y-147315589D01*
X168893513Y-147326389D01*
X168820000Y-147330000D01*
X166820000Y-147330000D01*
X166746487Y-147326389D01*
X166673682Y-147315589D01*
X166602286Y-147297705D01*
X166532987Y-147272910D01*
X166466452Y-147241441D01*
X166403322Y-147203602D01*
X166344205Y-147159758D01*
X166289670Y-147110330D01*
X166240242Y-147055795D01*
X166196398Y-146996678D01*
X166158559Y-146933548D01*
X166127090Y-146867013D01*
X166102295Y-146797714D01*
X166084411Y-146726318D01*
X166073611Y-146653513D01*
X166070000Y-146580000D01*
X166070000Y-145080000D01*
X166073611Y-145006487D01*
X166084411Y-144933682D01*
X166102295Y-144862286D01*
X166127090Y-144792987D01*
X166158559Y-144726452D01*
X166196398Y-144663322D01*
X166240242Y-144604205D01*
X166289670Y-144549670D01*
X166344205Y-144500242D01*
X166403322Y-144456398D01*
X166466452Y-144418559D01*
X166532987Y-144387090D01*
X166602286Y-144362295D01*
X166673682Y-144344411D01*
X166746487Y-144333611D01*
X166820000Y-144330000D01*
X168820000Y-144330000D01*
X168893513Y-144333611D01*
X168893513Y-144333611D01*
G37*
D16*
X167820000Y-145830000D03*
D17*
X167820000Y-139830000D03*
D18*
X227440000Y-63030000D03*
X222560000Y-63030000D03*
X172560000Y-64010000D03*
X177440000Y-64010000D03*
D10*
X225180000Y-54180000D03*
D11*
X227720000Y-54180000D03*
D10*
X205960000Y-104690000D03*
X208500000Y-104690000D03*
X211040000Y-104690000D03*
X213580000Y-104690000D03*
X216120000Y-104690000D03*
X218660000Y-104690000D03*
X221200000Y-104690000D03*
X223740000Y-104690000D03*
X226280000Y-104690000D03*
X228820000Y-104690000D03*
X231360000Y-104690000D03*
X233900000Y-104690000D03*
X236440000Y-104690000D03*
X238980000Y-104690000D03*
X241520000Y-104690000D03*
D11*
X244060000Y-104690000D03*
D10*
X203410000Y-145320000D03*
X203410000Y-142780000D03*
X203410000Y-140240000D03*
X203410000Y-137700000D03*
X203410000Y-135160000D03*
X203410000Y-132620000D03*
X203410000Y-130080000D03*
X203410000Y-127540000D03*
X203410000Y-125000000D03*
X203410000Y-122460000D03*
X203410000Y-119920000D03*
X203410000Y-117380000D03*
X203410000Y-114840000D03*
X203410000Y-112300000D03*
X203410000Y-109760000D03*
D11*
X203410000Y-107220000D03*
D10*
X213580000Y-147090000D03*
X211040000Y-147090000D03*
D11*
X208500000Y-147090000D03*
D10*
X246600000Y-107220000D03*
X246600000Y-109760000D03*
X246600000Y-112300000D03*
X246600000Y-114840000D03*
X246600000Y-117380000D03*
X246600000Y-119920000D03*
X246600000Y-122460000D03*
X246600000Y-125000000D03*
X246600000Y-127540000D03*
X246600000Y-130080000D03*
X246600000Y-132620000D03*
X246600000Y-135160000D03*
X246600000Y-137700000D03*
X246600000Y-140240000D03*
X246600000Y-142780000D03*
D11*
X246600000Y-145320000D03*
D10*
X238510000Y-109500000D03*
X235970000Y-109500000D03*
D11*
X233430000Y-109500000D03*
D10*
X238780000Y-115460000D03*
X236240000Y-115460000D03*
X233700000Y-115460000D03*
X231160000Y-115460000D03*
D11*
X228620000Y-115460000D03*
D10*
X227440000Y-140540000D03*
D11*
X227440000Y-138000000D03*
D10*
X55950000Y-144060000D03*
X55950000Y-141520000D03*
X55950000Y-138980000D03*
X55950000Y-136440000D03*
X55950000Y-133900000D03*
X55950000Y-131360000D03*
X55950000Y-128820000D03*
X55950000Y-126280000D03*
X55950000Y-123740000D03*
X55950000Y-121200000D03*
X55950000Y-118660000D03*
X55950000Y-116120000D03*
X55950000Y-113580000D03*
X55950000Y-111040000D03*
X55950000Y-108500000D03*
D11*
X55950000Y-105960000D03*
D10*
X94050000Y-105960000D03*
X94050000Y-108500000D03*
X94050000Y-111040000D03*
X94050000Y-113580000D03*
X94050000Y-116120000D03*
X94050000Y-118660000D03*
X94050000Y-121200000D03*
X94050000Y-123740000D03*
X94050000Y-126280000D03*
X94050000Y-128820000D03*
X94050000Y-131360000D03*
X94050000Y-133900000D03*
X94050000Y-136440000D03*
X94050000Y-138980000D03*
X94050000Y-141520000D03*
D11*
X94050000Y-144060000D03*
D10*
X72390000Y-134620000D03*
X69850000Y-134620000D03*
X67310000Y-134620000D03*
X64770000Y-134620000D03*
D11*
X62230000Y-134620000D03*
D10*
X69850000Y-139700000D03*
X67310000Y-139700000D03*
D11*
X64770000Y-139700000D03*
D10*
X86500000Y-139540000D03*
D11*
X86500000Y-137000000D03*
D10*
X212300000Y-90250000D03*
X214840000Y-90250000D03*
X217380000Y-90250000D03*
X219920000Y-90250000D03*
X222460000Y-90250000D03*
X225000000Y-90250000D03*
X227540000Y-90250000D03*
X230080000Y-90250000D03*
X232620000Y-90250000D03*
X235160000Y-90250000D03*
D11*
X237700000Y-90250000D03*
D10*
X209760000Y-85160000D03*
X209760000Y-82620000D03*
X209760000Y-80080000D03*
X209760000Y-77540000D03*
X209760000Y-75000000D03*
X209760000Y-72460000D03*
X209760000Y-69920000D03*
D11*
X209760000Y-67380000D03*
D10*
X240240000Y-85160000D03*
X240240000Y-82620000D03*
X240240000Y-80080000D03*
X240240000Y-77540000D03*
X240240000Y-75000000D03*
X240240000Y-72460000D03*
X240240000Y-69920000D03*
D11*
X240240000Y-67380000D03*
D10*
X211580000Y-60580000D03*
X209040000Y-60580000D03*
X211580000Y-58040000D03*
X209040000Y-58040000D03*
X211580000Y-55500000D03*
D11*
X209040000Y-55500000D03*
D10*
X190000000Y-66110000D03*
X190000000Y-68650000D03*
X190000000Y-71190000D03*
X190000000Y-73730000D03*
X190000000Y-76270000D03*
X190000000Y-78810000D03*
X190000000Y-81350000D03*
D11*
X190000000Y-83890000D03*
D10*
X160000000Y-89250000D03*
X160000000Y-86710000D03*
X160000000Y-84170000D03*
D11*
X160000000Y-81630000D03*
D10*
X182620000Y-90000000D03*
X180080000Y-90000000D03*
X177540000Y-90000000D03*
X175000000Y-90000000D03*
X172460000Y-90000000D03*
X169920000Y-90000000D03*
D11*
X167380000Y-90000000D03*
D10*
X161570000Y-60580000D03*
X159030000Y-60580000D03*
X161570000Y-58040000D03*
X159030000Y-58040000D03*
X161570000Y-55500000D03*
D11*
X159030000Y-55500000D03*
D10*
X160000000Y-76550000D03*
X160000000Y-74010000D03*
X160000000Y-71470000D03*
X160000000Y-68930000D03*
X160000000Y-66390000D03*
D11*
X160000000Y-63850000D03*
D10*
X191500000Y-59030000D03*
D11*
X191500000Y-56490000D03*
D10*
X118630000Y-85000000D03*
X121170000Y-85000000D03*
X123710000Y-85000000D03*
X126250000Y-85000000D03*
X128790000Y-85000000D03*
D11*
X131330000Y-85000000D03*
D10*
X142875000Y-60325000D03*
D11*
X142875000Y-57785000D03*
D10*
X78820000Y-85000000D03*
X76280000Y-85000000D03*
X73740000Y-85000000D03*
D11*
X71200000Y-85000000D03*
D10*
X92750000Y-60220000D03*
D11*
X92750000Y-57680000D03*
D10*
X60440000Y-61580000D03*
X57900000Y-61580000D03*
X60440000Y-59040000D03*
X57900000Y-59040000D03*
X60440000Y-56500000D03*
D11*
X57900000Y-56500000D03*
M02*
